<?xml version="1.0" encoding="utf-8"?>
<!-- Generator: Adobe Illustrator 25.4.8, SVG Export Plug-In . SVG Version: 6.00 Build 0)  -->
<svg version="1.1" id="Layer_1" xmlns="http://www.w3.org/2000/svg" xmlns:xlink="http://www.w3.org/1999/xlink" x="0px" y="0px"
	 viewBox="0 0 1906.9 2500" enable-background="new 0 0 1906.9 2500" xml:space="preserve">
<g>
	<path fill="#AEC7E6" d="M1906.8,1101.2c0-0.2,0-0.3,0-0.5c0-0.4-0.1-0.8-0.1-1.2c-0.1-0.9-0.2-1.8-0.3-2.7
		c-0.1-0.5-0.1-0.9-0.2-1.4c-0.2-0.9-0.3-1.8-0.5-2.7c-0.1-0.4-0.2-0.8-0.3-1.2c-0.3-1.3-0.6-2.5-1-3.8c0-0.1,0-0.1,0-0.2
		c0,0,0,0,0,0c-0.1-0.2-0.1-0.3-0.2-0.5c-0.4-1.3-0.8-2.6-1.3-3.9c-0.2-0.5-0.4-1-0.6-1.5c-0.4-1-0.8-1.9-1.2-2.9
		c-0.3-0.6-0.6-1.2-0.8-1.8c-0.4-0.9-0.8-1.7-1.3-2.6c-0.3-0.6-0.7-1.2-1-1.8c-0.4-0.8-0.9-1.6-1.4-2.4c-0.1-0.2-0.2-0.4-0.3-0.5
		c-0.6-0.9-1.1-1.8-1.7-2.8c-0.1-0.2-0.2-0.3-0.3-0.5c-0.7-1-1.4-2-2.1-3c-0.2-0.2-0.3-0.5-0.5-0.7c-0.8-1.1-1.6-2.1-2.5-3.2
		c-0.2-0.2-0.3-0.4-0.5-0.6c-0.8-0.9-1.6-1.8-2.4-2.7c-0.1-0.2-0.3-0.3-0.4-0.5c-0.9-1-1.8-1.9-2.8-2.8c-0.2-0.2-0.4-0.4-0.6-0.6
		c-0.3-0.3-0.6-0.6-0.9-0.8c-0.6-0.5-1.2-1.1-1.9-1.6c-0.1-0.1-0.2-0.1-0.2-0.2c-1-0.8-2-1.6-3-2.3c-0.2-0.2-0.5-0.3-0.7-0.5
		c-1-0.7-2.1-1.4-3.2-2l-45.1-26.1l0-63.7l-671.8-387.9v0l-55.1-31.8l0.1-47.7c0.1-20.3-14.2-45-31.9-55.2l-146.5-84.6
		c-17.7-10.2-32-2-32.1,18.3l-0.1,47.7L173.1,0l-1,350.9l-138-79.7c-12.4-7.2-22.5-1.4-22.6,12.9l-0.3,106.9
		c0,14.3,10,31.7,22.4,38.8l138,79.7l-1.9,684.4l-148-85.4c-11.8-6.8-21.4-1.3-21.4,12.2L0,1221.9c0,13.5,9.5,30,21.3,36.8
		l238.1,137.5c11.8,6.8,21.4,1.3,21.4-12.2l0.1-21.9l19.3,11.2c4.1,58.2,15.6,112.2,79,158.6h0c5,3.7,10.3,7.3,15.9,10.8
		c11.5,7.2,23.6,13.2,36.3,17.9c7.8,100.1-5.7,159.1-28,192.5l-12.9-79c-0.1-0.9-0.3-1.8-0.6-2.7c-0.1-0.3-0.1-0.5-0.2-0.8
		c-0.1-0.3-0.1-0.6-0.2-0.8c-0.1-0.3-0.2-0.6-0.3-0.9c-0.2-0.5-0.3-1.1-0.5-1.6c-0.1-0.2-0.1-0.4-0.2-0.6c-0.1-0.4-0.3-0.8-0.5-1.3
		c-0.1-0.3-0.2-0.6-0.3-0.9c-0.1-0.1-0.1-0.3-0.1-0.4c-0.3-0.7-0.6-1.5-1-2.2c0-0.1-0.1-0.1-0.1-0.2c-0.1-0.1-0.1-0.3-0.2-0.4
		c-0.2-0.5-0.4-0.9-0.7-1.4c-0.2-0.4-0.4-0.8-0.6-1.2c-0.1-0.2-0.2-0.3-0.2-0.5c-0.1-0.1-0.1-0.2-0.1-0.3c-0.3-0.6-0.7-1.3-1-1.9
		c-0.1-0.2-0.3-0.4-0.4-0.7c-0.1-0.2-0.2-0.3-0.3-0.5c-0.1-0.2-0.2-0.4-0.4-0.6c-0.4-0.6-0.7-1.2-1.1-1.8c-0.1-0.1-0.2-0.2-0.2-0.4
		c-0.1-0.1-0.2-0.3-0.3-0.4c-0.2-0.3-0.4-0.6-0.6-1c-0.4-0.6-0.8-1.2-1.2-1.7c0,0-0.1-0.1-0.1-0.1c-0.1-0.1-0.1-0.2-0.2-0.2
		c-0.3-0.4-0.7-0.9-1-1.3c-0.4-0.5-0.7-0.9-1.1-1.4c-0.1-0.1-0.1-0.1-0.2-0.2c0,0-0.1-0.1-0.1-0.1c-0.5-0.6-0.9-1.1-1.4-1.7
		c-0.2-0.3-0.5-0.5-0.7-0.8c-0.1-0.2-0.3-0.3-0.4-0.5c-0.1-0.1-0.2-0.3-0.4-0.4c-0.5-0.6-1.1-1.2-1.7-1.8c-0.1-0.1-0.2-0.2-0.2-0.2
		c-0.2-0.2-0.4-0.4-0.5-0.6c-0.4-0.4-0.8-0.8-1.1-1.2c-0.2-0.2-0.4-0.4-0.6-0.6c-0.4-0.4-0.8-0.7-1.1-1.1c-0.2-0.2-0.5-0.5-0.7-0.7
		c-0.3-0.2-0.5-0.5-0.8-0.7c-0.4-0.3-0.7-0.6-1.1-0.9c-0.5-0.5-1.1-0.9-1.7-1.3c-0.3-0.3-0.7-0.5-1-0.8c-0.6-0.5-1.2-0.9-1.8-1.3
		c-0.3-0.2-0.6-0.4-0.9-0.6c-0.9-0.6-1.8-1.2-2.8-1.7l-223.5-129c-1-0.6-2-1.1-2.9-1.5c-0.1-0.1-0.3-0.1-0.4-0.2
		c-0.1,0-0.2-0.1-0.3-0.1c-0.5-0.2-1.1-0.4-1.6-0.6c-0.4-0.1-0.8-0.3-1.1-0.5c0,0-0.1,0-0.1-0.1c-0.7-0.2-1.4-0.5-2.1-0.6
		c-0.1,0-0.2,0-0.3-0.1c-0.2,0-0.3-0.1-0.5-0.1c-0.3-0.1-0.6-0.1-0.9-0.2c-0.4-0.1-0.9-0.1-1.3-0.2c0,0-0.1,0-0.1,0c0,0,0,0-0.1,0
		c-0.5,0-0.9-0.1-1.4-0.1c-0.3,0-0.5,0-0.8,0c-0.1,0-0.2,0-0.2,0c-0.1,0-0.1,0-0.2,0c-0.4,0-0.8,0.1-1.1,0.1c-0.2,0-0.4,0.1-0.6,0.1
		c-0.1,0-0.2,0-0.2,0c-0.1,0-0.1,0-0.2,0c-0.3,0.1-0.7,0.2-1,0.3c-0.2,0.1-0.4,0.2-0.5,0.2c-0.1,0-0.1,0.1-0.2,0.1
		c-0.1,0-0.1,0.1-0.2,0.1c-0.3,0.2-0.6,0.3-0.9,0.5c-0.2,0.1-0.4,0.3-0.5,0.4l-13,10.2c0.1,0,0.1-0.1,0.2-0.1
		c-3.5,2.6-5.1,7.8-3.9,15.2l22.8,139.6c-21.5,0.5-29.6,29.8-16.4,43.4c-11.5,9.6-15.9,38.2,1.2,47.3c0.5,0.3,1,0.5,1.5,0.7
		c-15,5.2-12.4,37.4,2.1,44.8c-16.6,1.2-13.6,30.9,1.5,37c11.1,4.5,24.5,8.6,35.5,9.5c3.4,2.6,10.1,6.5,20.8,7.8
		c3.9,3.8,8,7,12.2,9.4l3.8,2.2c0.2,5.5,1.8,10,5.3,12.7c31,24.4,64.2,39.2,97.7,46.7l116.8,67.4c2.2,1.3,4.3,2.2,6.3,2.9
		c-0.1,0.2-0.2,0.4-0.3,0.6c-0.1,0.2-0.2,0.4-0.4,0.7c-0.1,0.2-0.2,0.5-0.4,0.7c-0.1,0.2-0.2,0.5-0.3,0.7c-0.1,0.2-0.2,0.5-0.3,0.7
		c-0.4,1-0.9,2-1.2,3.1c-0.1,0.2-0.2,0.4-0.2,0.6c-0.1,0.3-0.2,0.6-0.3,0.9c-0.1,0.2-0.1,0.4-0.2,0.7c-0.1,0.3-0.2,0.6-0.3,1
		c-0.1,0.2-0.1,0.4-0.2,0.7c-0.1,0.3-0.2,0.7-0.3,1c-0.1,0.2-0.1,0.4-0.2,0.7c-0.1,0.3-0.2,0.7-0.2,1.1c0,0.2-0.1,0.4-0.1,0.7
		c-0.1,0.4-0.1,0.7-0.2,1.1c0,0.2-0.1,0.4-0.1,0.7c-0.1,0.4-0.1,0.8-0.2,1.1c0,0.2-0.1,0.4-0.1,0.6c-0.1,0.4-0.1,0.8-0.2,1.2
		c0,0.2,0,0.4-0.1,0.6c-0.1,0.4-0.1,0.9-0.1,1.3c0,0.2,0,0.4-0.1,0.5c0,0.5-0.1,0.9-0.1,1.4c0,0.2,0,0.3,0,0.5c0,0.5-0.1,1-0.1,1.5
		c0,0.1,0,0.2,0,0.3c-0.1,1.4-0.1,2.9-0.1,4.4c-19.7,13.2-77.1,51.4-130,86c-7.5,4.9-14.9,9.7-22.1,14.4c-1-2.2-2-4.5-3-6.7
		c-22.2-49.4-52.3-79-92.1-87.6c-37.3-8.1-65.4,5.6-83.6,20.9c-1.5,1.3-2.9,2.6-4.3,4c-0.3,0.3-0.6,0.6-0.8,0.9
		c-0.2,0.2-0.4,0.5-0.7,0.7c-0.3,0.3-0.6,0.7-0.9,1c-0.2,0.2-0.4,0.5-0.6,0.7c-0.3,0.4-0.6,0.7-0.9,1.1c-0.2,0.2-0.4,0.5-0.5,0.7
		c-0.3,0.4-0.6,0.8-0.8,1.2c-0.2,0.2-0.3,0.5-0.5,0.7c-0.3,0.4-0.6,0.9-0.8,1.3c-0.1,0.2-0.3,0.4-0.4,0.6c-0.4,0.6-0.7,1.2-1.1,1.9
		c0,0,0,0,0,0.1c-0.3,0.4-0.5,0.9-0.7,1.3c-0.1,0.1-0.2,0.3-0.2,0.4c-0.2,0.3-0.3,0.6-0.5,0.9l-0.3,0.5c0,0,0,0.1,0,0.1
		c-0.3,0.6-0.5,1.1-0.8,1.7l0,0c-0.1,0.1-0.1,0.2-0.2,0.3c-1,2.2-1.8,4.6-2.4,6.9c-0.1,0.4-0.2,0.8-0.3,1.2
		c-0.1,0.4-0.2,0.7-0.2,1.1c-0.1,0.6-0.2,1.1-0.4,1.6c-0.2,0.8-0.3,1.6-0.4,2.3c-0.1,0.7-0.2,1.4-0.3,2c-0.1,1-0.2,2.1-0.3,3.1
		c0,0,0,0,0,0c-0.1,1.2-0.1,2.4-0.1,3.7c0,0,0,0,0,0.1c0,0.6,0,1.1,0.1,1.6c0,0.2,0,0.3,0,0.5c0.1,1.1,0.2,2.2,0.3,3.3
		c0.1,1.3,0.3,2.6,0.6,3.8c0.1,0.6,0.2,1.2,0.4,1.8c0.1,0.5,0.2,0.9,0.3,1.4l0,0c0.3,1.5,0.7,3.1,1.1,4.7c0.1,0.4,0.2,0.7,0.2,1.1
		c0.4,1.6,0.8,3.3,1.1,5.1c0.2,0.9,0.4,1.7,0.6,2.6c0,0.1,0.1,0.2,0.1,0.3c0.4,1.6,0.7,3.1,1.1,4.7c0.4,2,0.9,4,1.4,6
		c0.4,1.9,0.9,3.8,1.3,5.8c0.6,2.8,1.3,5.6,1.9,8.4c0.2,0.9,0.4,1.8,0.6,2.7c0.4,1.8,0.8,3.6,1.2,5.4c0.8,3.6,1.7,7.3,2.5,10.9
		c0.5,2,0.9,3.9,1.4,5.9c0.2,1.1,0.5,2.1,0.7,3.2l0,0c0,0.2,0.1,0.4,0.1,0.6c0.3,1.4,0.6,2.8,0.9,4.1c1.5,6.5,3,13,4.5,19.3
		c0.4,1.8,0.9,3.6,1.3,5.4c0.7,3,1.4,5.9,2.1,8.8c0.3,1.3,0.6,2.5,0.9,3.8l0,0c0.9,3.7,1.7,7.4,2.6,10.9c0.4,1.6,0.7,3.1,1.1,4.6
		c0.6,2.4,1.1,4.7,1.6,6.9c0.2,0.7,0.3,1.3,0.5,2c1.1,4.6,2.1,8.8,3.1,12.7c0.2,1,0.5,1.9,0.7,2.8c0.2,0.8,0.4,1.7,0.6,2.5
		c0.3,1.1,0.6,2.2,0.8,3.2c0.8,3,1.6,6.1,2.4,9.3l0,0c0.1,0.3,0.2,0.6,0.3,0.9c0.4,1.4,0.8,2.8,1.2,4.2c0.2,0.8,0.4,1.5,0.7,2.3
		c0.5,1.6,0.9,3.1,1.4,4.7c0.1,0.2,0.1,0.5,0.2,0.7l0,0c5.3,17.2,11.9,34.8,20.1,50.7c0.2,0.3,0.3,0.6,0.5,0.9
		c0.5,0.9,0.9,1.7,1.4,2.6c0.4,0.7,0.8,1.4,1.2,2.2c0.3,0.6,0.6,1.1,0.9,1.7c0.4,0.8,0.9,1.6,1.3,2.3c0.3,0.6,0.6,1.1,1,1.7
		c0.1,0.2,0.2,0.3,0.3,0.5l0,0c10,16.7,22,30.7,36.1,38.8c0.6,0.3,1.1,0.6,1.7,0.9c1.7,0.9,3.4,1.8,5.1,2.6c0.9,0.4,1.8,0.8,2.6,1.1
		c1.4,0.6,2.7,1.1,4,1.5c0.5,0.1,0.9,0.3,1.4,0.4c1.5,0.4,3,0.8,4.4,1c0.6,0.1,1.1,0.2,1.6,0.2c0.5,0.1,1,0.1,1.5,0.1
		c3.9,0.3,7.6-0.2,10.9-1.7c0.4-0.2,0.7-0.3,1.1-0.5c0.3-0.2,0.7-0.4,1-0.6c0.3-0.1,0.5-0.3,0.8-0.5c2.6-1.5,11.1-6.6,16.8-9.8
		c22.5-12.5,32.3-19.6,48.7-28.1c4.6-2.4,8.5-5.1,11.8-8c0.3,1.2,0.6,2.4,0.8,3.6c0.2,0.7,0.3,1.3,0.5,2c1.1,4.6,2.1,8.8,3.1,12.7
		c0.2,1,0.5,1.9,0.7,2.8c0.2,0.8,0.4,1.7,0.6,2.5c0.3,1.1,0.6,2.2,0.8,3.2c0.8,3,1.6,6.1,2.4,9.3l0,0c0.1,0.3,0.2,0.6,0.3,0.9
		c0.4,1.4,0.8,2.8,1.2,4.3c0.2,0.7,0.4,1.5,0.6,2.2c0.5,1.6,0.9,3.1,1.4,4.7c0.1,0.2,0.1,0.5,0.2,0.7l0,0
		c5.3,17.2,11.9,34.8,20.1,50.7c0.2,0.3,0.3,0.6,0.5,0.9c0.5,0.9,0.9,1.7,1.4,2.6c0.4,0.7,0.8,1.4,1.2,2.2c0.3,0.6,0.6,1.1,0.9,1.7
		c0.4,0.8,0.9,1.6,1.3,2.3c0.3,0.6,0.6,1.1,1,1.7c0.1,0.2,0.2,0.3,0.3,0.5l0,0c10,16.7,22,30.7,36.1,38.8c0.6,0.3,1.1,0.6,1.7,0.9
		c1.7,0.9,3.4,1.8,5.1,2.6c0.9,0.4,1.8,0.8,2.6,1.1c1.4,0.6,2.7,1.1,4,1.5c0.5,0.1,0.9,0.3,1.4,0.4c1.5,0.4,3,0.8,4.4,1
		c0.6,0.1,1.1,0.2,1.6,0.2c0.5,0.1,1,0.1,1.5,0.1c3.9,0.3,7.6-0.2,10.9-1.7c0.4-0.2,0.7-0.3,1.1-0.5c0.3-0.2,0.7-0.4,1-0.6
		c0.3-0.1,0.5-0.3,0.8-0.5c2.6-1.5,11.1-6.6,16.8-9.8c22.5-12.5,32.3-19.6,48.7-28.1c9.6-5,16.2-11.2,20.8-18.1
		c6.2-9.3,8.6-19.7,9.5-29.8c57.8-29.7,165.7-86.1,206.4-107.4c5.5,2.2,11,3.4,16.4,3.4c0.1,0,0.1,0,0.2,0c0.4,0,0.9,0,1.3,0
		c0.1,0,0.2,0,0.4,0c0.4,0,0.8,0,1.2-0.1c0.2,0,0.3,0,0.5,0c0.4,0,0.8-0.1,1.1-0.1c0.2,0,0.4,0,0.6-0.1c0.4-0.1,0.7-0.1,1.1-0.2
		c0.2,0,0.4-0.1,0.6-0.1c0.3-0.1,0.7-0.1,1-0.2c0.2,0,0.4-0.1,0.7-0.2c0.3-0.1,0.7-0.2,1-0.3c0.2-0.1,0.5-0.1,0.7-0.2
		c0.3-0.1,0.6-0.2,0.9-0.3c0.2-0.1,0.5-0.2,0.7-0.3c0.3-0.1,0.6-0.2,0.9-0.3c0.3-0.1,0.5-0.2,0.8-0.3c0.3-0.1,0.6-0.2,0.9-0.4
		c0.3-0.1,0.6-0.3,0.8-0.4c0.3-0.1,0.5-0.2,0.8-0.4c0.3-0.2,0.6-0.3,1-0.5c0.2-0.1,0.4-0.2,0.7-0.3c0.5-0.3,1-0.6,1.5-0.9
		c0,0,0.1,0,0.1-0.1c0.1-0.1,0.3-0.2,0.4-0.2c61.3-36.9,173.8-100.3,192.5-111.2c12.1-7,23.6-24.3,31.1-48.1
		c8.6-27.6,11.8-64,3.9-103.2c-2.2-11-4.8-21.3-8-30.7c0.6-4.2,0.7-8.4,0.2-12.7c-1-8.6-1.6-34.8-3.2-70.1c0-0.2,0-0.3,0-0.5
		c0-0.7-0.1-1.4-0.1-2.1c0-0.4,0-0.8-0.1-1.2c0-0.6-0.1-1.1-0.1-1.7c0-1-0.1-2-0.1-3c0-0.2,0-0.3,0-0.5c0-0.9-0.1-1.9-0.1-2.8
		c0-0.2,0-0.5,0-0.8c0-1-0.1-2-0.2-2.9c0-0.1,0-0.2,0-0.3c-0.6-11-1.3-22.8-2.1-35c7.7-44.9,7.9-92.1,2.6-133.1l876.2,505.9
		c6,3.4,13.4-0.8,13.4-7.7l0-914.1l3.2,1.8c9.9,5.7,18.8,6.1,25.2,2.1c-0.2,0.1-0.3,0.2-0.5,0.3l41.2-24
		c6.2-3.6,10.1-11.3,10.1-22.2l0.5-178.8C1906.9,1103.5,1906.9,1102.3,1906.8,1101.2z M484.2,1896c7.9,11.2,22.5,22.2,34.5,30
		c-11,6.4-22.1,12.8-32.7,18.9c-17.3,10-33.6,19.3-47.1,27c0-1.2-0.1-2.5-0.4-3.8l-8.3-51C449.4,1911.4,467.5,1904.2,484.2,1896z"/>
	<g id="kids_coding">
		<g>
			<g>
				<g>
					<path fill="#114077" d="M1827.3,955.1L173.1,0l-3.7,1297.8l1644.5,949.4c6,3.4,13.4-0.8,13.4-7.7L1827.3,955.1z"/>
					<g>
						<polygon fill="none" points="376.2,1294.1 376.2,1294 376.1,1322.7 470.3,1377.1 470.3,1377.1 376.1,1322.7 						"/>
						<polygon fill="none" points="317,1145.9 317,1145.9 317,1174.5 411.1,1228.9 411.1,1228.9 317,1174.5 						"/>
						<polygon fill="none" points="376.4,1239.5 376.4,1239.5 376.3,1268.2 470.5,1322.6 470.5,1322.6 376.3,1268.2 						"/>
						<polygon fill="none" points="556.2,1312.7 610.5,1344 610.5,1344 556.3,1312.7 556.3,1284 610.5,1315.3 610.5,1315.3 
							556.3,1284 						"/>
						<polygon fill="none" points="481.6,1354.9 481.6,1354.9 481.5,1383.6 604.2,1454.4 604.2,1454.4 481.6,1383.6 						"/>
						<polygon fill="none" points="481.8,1300.4 481.8,1300.4 481.7,1329.1 604.3,1399.9 604.3,1399.9 481.7,1329 						"/>
						<polygon fill="none" points="318.7,550.6 318.7,550.6 318.6,579.3 445.7,652.7 445.7,652.7 318.7,579.3 						"/>
						<polygon fill="none" points="545.8,1009.5 545.8,1009.5 545.7,1038.2 562.8,1048.1 545.7,1038.2 						"/>
						<polygon fill="none" points="319,441.6 319,441.6 319,470.2 455.1,548.8 455.1,548.8 319,470.2 						"/>
						<polygon fill="none" points="318.6,605.2 318.6,605.2 318.5,633.9 409.6,686.5 409.6,686.5 318.5,633.9 						"/>
						<polygon fill="none" points="258.8,188.3 258.8,188.3 258.7,216.9 339.4,263.5 339.4,263.5 258.8,216.9 						"/>
						<polygon fill="none" points="317.8,877.9 317.7,906.6 317.7,906.6 317.8,877.9 						"/>
						<polygon fill="none" points="410.7,960.3 410.7,960.3 385.9,945.9 						"/>
						<polygon fill="none" points="615.7,1377.7 615.7,1377.7 615.6,1406.4 708.8,1460.2 708.8,1460.2 615.6,1406.4 						"/>
						<polygon fill="none" points="816.3,921.2 718,864.5 718.1,835.9 723.8,839.2 718.1,835.9 718,864.5 816.3,921.3 						"/>
						<polygon fill="none" points="925.8,984.5 827.5,927.7 827.6,899.1 827.6,899.1 827.5,927.7 925.8,984.5 						"/>
						<polygon fill="none" points="466.6,472.1 466.6,472.1 466.5,500.8 711.6,642.3 711.6,642.3 466.5,500.8 						"/>
						<polygon fill="none" points="466.7,417.6 466.7,417.6 466.6,446.2 639.3,545.9 639.3,545.9 466.6,446.2 						"/>
						<polygon fill="none" points="319.2,387 319.2,387 319.1,415.7 455.2,494.3 455.2,494.3 319.1,415.7 						"/>
						<polygon fill="none" points="718.9,891 718.9,890.9 718.8,919.6 928.9,1040.9 928.9,1040.9 718.8,919.6 						"/>
						<polygon fill="none" points="500.1,356.3 350.6,270 350.7,241.3 350.7,241.3 350.6,270 500.1,356.3 						"/>
						<polygon fill="none" points="720.1,1438 720.1,1438 720.1,1466.7 813.3,1520.5 813.3,1520.5 720.1,1466.7 						"/>
						<polygon fill="none" points="824.6,1498.3 824.6,1498.3 824.5,1527 1347,1828.6 1347,1828.6 824.5,1527 						"/>
						<polygon fill="none" points="825.1,1225.4 825,1254.1 825,1254.1 825.1,1225.4 						"/>
						<polygon fill="none" points="1494.1,1338.5 1127.2,1126.7 1494.1,1338.5 						"/>
						<polygon fill="none" points="940.2,1018.7 940.2,1018.7 940.1,1047.4 1494,1367.2 1494,1367.2 940.1,1047.4 						"/>
						<polygon fill="none" points="411.2,1200.2 368.2,1175.4 411.2,1200.2 						"/>
						<polygon fill="none" points="377,1021.3 377,1021.3 376.9,1050 471.1,1104.4 471.1,1104.4 376.9,1050 						"/>
						<polygon fill="none" points="720.9,1165.3 720.9,1165.3 720.8,1194 766.6,1220.4 720.8,1194 						"/>
						<polygon fill="none" points="1067.5,1607.9 621.7,1350.5 621.8,1321.8 621.8,1321.8 621.7,1350.5 1067.5,1607.9 						"/>
						<polygon fill="none" points="647.1,849.5 707.7,884.5 707.7,884.4 						"/>
						<polygon fill="none" points="608.6,772.7 642.7,792.3 608.6,772.7 608.5,801.3 706.8,858.1 706.8,858 608.6,801.3 						"/>
						<polygon fill="none" points="1261.8,1451.7 622.4,1082.5 622.5,1053.8 874,1199 622.5,1053.8 622.4,1082.5 1261.8,1451.7 
													"/>
						<polygon fill="none" points="709.6,1187.5 616.4,1133.6 616.5,1105 616.4,1105 616.4,1133.6 709.6,1187.5 						"/>
						<polygon fill="none" points="620.6,834.2 620.6,834.2 620.6,862.9 707.6,913.1 707.6,913.1 620.6,862.9 						"/>
						<polygon fill="none" points="466.3,555.3 466.4,526.6 466.4,526.6 466.3,555.3 528.1,591 528.1,591 						"/>
						<polygon fill="none" points="420.9,664.3 420.9,664.3 420.9,693 540.3,762 540.3,761.9 420.9,693 						"/>
						<polygon fill="none" points="319.4,332.5 319.3,332.5 319.3,361.2 455.4,439.8 455.4,439.7 319.3,361.1 						"/>
						<polygon fill="none" points="551.6,768.4 551.7,739.8 551.7,739.8 551.6,768.4 597.3,794.8 597.3,794.8 						"/>
						<polygon fill="none" points="508.8,769.7 508.8,769.7 508.7,798.3 584.2,841.9 508.8,798.3 						"/>
						<polygon fill="none" points="377.9,694.1 377.9,694.1 377.8,722.8 438.7,757.9 377.8,722.8 						"/>
						<polygon fill="none" points="422.1,938.1 442.6,950 422,938.1 422,966.8 534.5,1031.7 534.5,1031.7 422,966.8 						"/>
						
							<rect x="487.3" y="1053" transform="matrix(2.914632e-03 -1 1 2.914632e-03 -552.8565 1551.5786)" fill="none" width="28.7" height="0"/>
						<polygon fill="none" points="414.1,715 497.6,763.2 497.6,763.2 						"/>
						<polygon fill="none" points="482,808.8 481.9,837.5 481.9,837.5 482,808.8 						"/>
						<polygon fill="none" points="377.8,748.6 377.7,748.6 377.7,777.3 394.9,787.2 377.7,777.3 						"/>
						<polygon fill="none" points="545,1306.2 422.4,1235.4 422.5,1206.7 422.5,1206.7 422.4,1235.4 545,1306.2 						"/>
						<polygon fill="none" points="605,1181.7 482.3,1110.9 482.4,1082.2 482.4,1082.2 482.3,1110.9 605,1181.7 						"/>
						<polygon fill="none" points="490.4,1032.2 465.7,1017.9 490.4,1032.2 						"/>
						<polygon fill="none" points="490.4,1060.9 490.4,1060.9 427,1024.3 						"/>
						<polygon fill="none" points="377.1,966.8 377,995.5 377.1,995.5 377.1,966.8 						"/>
						<polygon fill="none" points="545.1,1277.5 500.5,1251.8 545.1,1277.5 						"/>
						<polygon fill="none" points="1035.2,1047.7 937,990.9 937.1,962.3 958.6,974.7 937.1,962.3 937,990.9 1035.2,1047.7 						"/>
						<polygon fill="none" points="289.2,125.2 211.6,80.5 211.7,51.8 211.7,51.8 211.6,80.5 289.2,125.2 						"/>
						<polygon fill="#F9812B" points="481.7,1329 604.3,1399.9 604.4,1371.2 481.8,1300.4 						"/>
						<polygon fill="#ED4944" points="376.1,1322.7 470.3,1377.1 470.4,1348.4 376.2,1294.1 						"/>
						<polygon fill="#FFE7AD" points="376.3,1268.2 470.5,1322.6 470.6,1293.9 376.4,1239.5 						"/>
						<polygon fill="#68B7E6" points="545,1306.2 545.1,1277.5 500.5,1251.8 422.5,1206.7 422.4,1235.4 						"/>
						<polygon fill="#AEC7E6" points="481.6,1383.6 604.2,1454.4 604.3,1425.7 481.6,1354.9 						"/>
						<polygon fill="#AEC7E6" points="615.6,1406.4 708.8,1460.2 708.9,1431.5 615.7,1377.7 						"/>
						<polygon fill="#AEC7E6" points="825,1254.1 1466.9,1624.7 1467,1596 825.1,1225.4 						"/>
						<polygon fill="#AEC7E6" points="1067.5,1607.9 1067.6,1579.2 621.8,1321.8 621.7,1350.5 						"/>
						<polygon fill="#7CD96C" points="720.1,1466.7 813.3,1520.5 813.4,1491.8 720.1,1438 						"/>
						<polygon fill="#AEC7E6" points="824.5,1527 1347,1828.6 1347.1,1800 824.6,1498.3 						"/>
						<polygon fill="#7CD96C" points="720.8,1194 766.6,1220.4 813.8,1247.6 813.9,1218.9 720.9,1165.3 						"/>
						<polygon fill="#ED4944" points="317,1174.5 411.1,1228.9 411.2,1200.2 368.2,1175.4 317,1145.9 						"/>
						<polygon fill="#7CD96C" points="556.3,1312.7 610.5,1344 610.5,1315.3 556.3,1284 						"/>
						<polygon fill="#ED4944" points="376.9,1050 471.1,1104.4 471.2,1075.7 377,1021.3 						"/>
						<polygon fill="#ED4944" points="317.7,906.6 385.9,945.9 410.7,960.3 410.8,931.6 317.8,877.9 						"/>
						<polygon fill="#AEC7E6" points="490.4,1060.9 490.4,1032.2 465.7,1017.9 377.1,966.8 377.1,995.5 427,1024.3 						"/>
						<polygon fill="#68B7E6" points="422.1,938.1 422,966.8 534.5,1031.7 534.6,1003.1 442.6,950 						"/>
						<polygon fill="#ED4944" points="319,470.2 455.1,548.8 455.2,520.2 319,441.6 						"/>
						<polygon fill="#ED4944" points="319.1,415.7 455.2,494.3 455.3,465.6 319.2,387 						"/>
						<polygon fill="#AEC7E6" points="718,864.5 816.3,921.2 816.4,892.6 723.8,839.2 718.1,835.9 						"/>
						<polygon fill="#7CD96C" points="500.1,356.3 500.2,327.7 350.7,241.3 350.6,270 						"/>
						<polygon fill="#AEC7E6" points="528.1,591 528.2,562.3 466.4,526.6 466.3,555.3 						"/>
						<polygon fill="#AEC7E6" points="466.6,446.2 639.3,545.9 639.3,517.2 466.7,417.6 						"/>
						<polygon fill="#AEC7E6" points="605,1181.7 605,1181.7 605.1,1153 482.4,1082.2 482.4,1082.2 482.3,1110.9 						"/>
						<polygon fill="#F9812B" points="605.2,1098.5 501.7,1038.7 501.7,1038.7 501.6,1067.4 501.6,1067.4 605.1,1127.1 						"/>
						<polygon fill="#7CD96C" points="545.8,1009.5 545.7,1038.2 562.8,1048.1 611.2,1076 611.3,1047.4 545.8,1009.5 						"/>
						<polygon fill="#ED4944" points="377.8,748.6 377.7,777.3 394.9,787.2 470.7,831 470.8,802.3 377.8,748.6 						"/>
						<polygon fill="#ED4944" points="318.6,605.2 318.5,633.9 409.6,686.5 409.6,686.5 409.7,657.8 318.6,605.2 						"/>
						<polygon fill="#AEC7E6" points="709.6,1187.5 709.6,1187.5 709.7,1158.8 616.5,1105 616.5,1105 616.4,1133.6 						"/>
						<polygon fill="#AEC7E6" points="377.9,694.1 377.9,694.1 377.8,722.8 438.7,757.9 497.5,791.9 497.6,763.2 497.6,763.2 
							414.1,715 						"/>
						<polygon fill="#7B7A5C" points="318.7,550.6 318.7,579.3 445.7,652.7 445.7,652.7 445.8,624 318.7,550.6 						"/>
						<polygon fill="#AEC7E6" points="609.3,882.3 482,808.8 482,808.8 481.9,837.5 481.9,837.5 609.2,911 						"/>
						<polygon fill="#68B7E6" points="420.9,664.3 420.9,693 540.3,761.9 540.4,762 540.4,733.3 420.9,664.3 						"/>
						<polygon fill="#F9812B" points="508.8,769.7 508.8,798.3 584.2,841.9 609.3,856.4 609.4,827.7 508.8,769.7 						"/>
						<polygon fill="#7CD96C" points="597.3,794.8 597.3,794.8 597.4,766.2 551.7,739.8 551.7,739.8 551.6,768.4 						"/>
						<polygon fill="#AEC7E6" points="620.6,834.2 620.6,834.2 620.6,862.9 707.6,913.1 707.6,913.1 707.7,884.5 707.7,884.5 
							647.1,849.5 						"/>
						<polygon fill="#68B7E6" points="258.8,188.3 258.8,216.9 339.4,263.5 339.4,263.5 339.5,234.8 258.8,188.3 						"/>
						<polygon fill="#ED4944" points="319.4,332.5 319.3,361.1 455.4,439.7 455.4,439.7 455.5,411.1 319.4,332.5 						"/>
						<polygon fill="#AEC7E6" points="608.6,772.7 608.6,801.3 706.8,858 706.8,858.1 706.9,829.4 642.7,792.3 						"/>
						<polygon fill="#ED4944" points="289.2,125.2 289.2,125.2 289.2,96.6 211.7,51.8 211.7,51.8 211.6,80.5 						"/>
						<polygon fill="#7CD96C" points="718.9,891 718.8,919.6 928.9,1040.9 928.9,1040.9 929,1012.2 718.9,890.9 						"/>
						<polygon fill="#AEC7E6" points="466.6,472.1 466.5,500.8 711.6,642.3 711.6,642.3 711.7,613.6 466.6,472.1 						"/>
						<polygon fill="#AEC7E6" points="925.8,984.5 925.8,984.5 925.8,955.8 827.6,899.1 827.6,899.1 827.5,927.7 						"/>
						<polygon fill="#AEC7E6" points="622.4,1082.5 1261.8,1451.7 1261.8,1451.7 1261.9,1423 874,1199 622.5,1053.8 						"/>
						<polygon fill="#AEC7E6" points="937,990.9 1035.2,1047.7 1035.2,1047.7 1035.3,1019 958.6,974.7 937.1,962.3 						"/>
						<polygon fill="#AEC7E6" points="940.2,1018.7 940.1,1047.4 1494,1367.2 1494,1367.2 1494.1,1338.5 1494.1,1338.5 
							1127.2,1126.7 940.2,1018.7 						"/>
					</g>
				</g>
				<g>
					<path fill="#FF8666" d="M1831.2,1068.8l-254.6-147c-19.1-11-34.7-2.2-34.7,19.8l-0.5,178.8c-0.1,22,15.4,48.7,34.5,59.8
						l254.6,147c19.1,11,34.7,2.2,34.7-19.8l0.5-178.8C1865.8,1106.6,1850.3,1079.8,1831.2,1068.8z"/>
					<g>
						<g>
							<path fill="#E5ECF3" d="M1650.6,1037.9c2.7,1.6,5.5,6,8.4,13.3c1.9,4.7,2.8,7.9,2.8,9.7c0,1.8-0.4,3.1-1.1,4
								c-0.9,1.3-3,2.3-6.2,2.8c-29.9,3-45.5,4.6-46.7,4.9l46.5,58.6c1.9,2.4,3.2,4.2,4,5.5c2.2,3.3,3.3,6.2,3.3,8.6
								c0,2.3-0.9,4.6-2.6,6.9c-1.8,2.3-3.3,3.7-4.7,4.3c-1.4,0.6-2.9,0.4-4.4-0.4c-2-1.2-4.6-3.7-7.8-7.8l-64.2-81
								c-3.9-4.4-5.8-9.5-5.8-15.3c0-5.8,2-8.6,6-8.6c34.4-3.5,54.2-5.6,59.3-6.2c5.1-0.6,8.2-0.8,9.2-0.6
								C1647.8,1036.6,1649.1,1037,1650.6,1037.9z"/>
						</g>
						<g>
							<path fill="#E5ECF3" d="M1725.3,1064.6c1.5,0.9,4.1,3.3,7.6,7.1c5.4,6.1,8.1,11,8.1,14.5c0,1.5-0.7,4-2.1,7.4l-48.5,87.3
								c-0.8,1.5-1.4,2.6-1.9,3.2c-0.5,0.7-1.2,1.1-2.3,1.4c-1,0.3-2.4-0.1-4.1-1.1c-1.7-1-4.2-3.3-7.5-6.9
								c-3.3-3.6-5.5-6.4-6.7-8.4s-1.7-3.8-1.7-5.4c0-1.6,0.6-4.1,1.8-7.6l48.7-88.2c1.9-3.3,3.6-4.8,5.1-4.6
								C1722.6,1063.3,1723.8,1063.7,1725.3,1064.6z"/>
						</g>
						<g>
							<path fill="#E5ECF3" d="M1756.8,1099.2c2.4,1.4,5.1,4,8.1,8l64,80.9c4,4.6,6,9.8,6,15.6c0,5.8-2,8.6-5.9,8.5l-64.3,6.8
								c-2.9,0.5-5.4,0.1-7.6-1.2c-1.8-1-3.3-2.6-4.7-4.7c-1.4-2.2-2.8-5.1-4.3-8.7c-2-4.9-3-8.3-3-10s0.3-3,0.9-4
								c1.1-1.3,3.3-2.1,6.5-2.5l46.8-4.8l-46.5-58.6c-1.8-2.3-3.1-4.1-4-5.5c-2.2-3.5-3.3-6.4-3.3-9c0-2.3,0.9-4.6,2.6-6.8
								C1751.1,1099,1754.1,1097.6,1756.8,1099.2z"/>
						</g>
					</g>
					<path fill="#ED4944" d="M1906.8,1101.2c0-0.2,0-0.3,0-0.5c0-0.4-0.1-0.8-0.1-1.2c-0.1-0.9-0.2-1.8-0.3-2.7
						c-0.1-0.5-0.1-0.9-0.2-1.4c-0.2-0.9-0.3-1.8-0.5-2.7c-0.1-0.4-0.2-0.8-0.3-1.2c-0.3-1.3-0.6-2.5-1-3.8c0-0.1,0-0.1,0-0.2
						c0,0,0,0,0,0c-0.1-0.2-0.1-0.3-0.2-0.5c-0.4-1.3-0.8-2.6-1.3-3.9c-0.2-0.5-0.4-1-0.6-1.5c-0.4-1-0.8-1.9-1.2-2.9
						c-0.3-0.6-0.6-1.2-0.8-1.8c-0.4-0.9-0.8-1.7-1.3-2.6c-0.3-0.6-0.7-1.2-1-1.8c-0.4-0.8-0.9-1.6-1.4-2.4
						c-0.1-0.2-0.2-0.4-0.3-0.5c-0.6-0.9-1.1-1.8-1.7-2.8c-0.1-0.2-0.2-0.3-0.3-0.5c-0.7-1-1.4-2-2.1-3c-0.2-0.2-0.3-0.5-0.5-0.7
						c-0.8-1.1-1.6-2.1-2.5-3.2c-0.2-0.2-0.3-0.4-0.5-0.6c-0.8-0.9-1.6-1.8-2.4-2.7c-0.1-0.2-0.3-0.3-0.4-0.5
						c-0.9-1-1.8-1.9-2.8-2.8c-0.2-0.2-0.4-0.4-0.6-0.6c-0.3-0.3-0.6-0.6-0.9-0.8c-0.6-0.5-1.2-1.1-1.9-1.6
						c-0.1-0.1-0.2-0.1-0.2-0.2c-1-0.8-2-1.6-3-2.3c-0.2-0.2-0.5-0.3-0.7-0.5c-1-0.7-2.1-1.4-3.2-2l-254.6-147
						c-0.8-0.4-1.5-0.8-2.3-1.2c-0.2-0.1-0.4-0.2-0.6-0.3c-0.6-0.3-1.3-0.6-1.9-0.9c-0.1,0-0.2-0.1-0.3-0.1c0,0,0,0-0.1,0
						c-0.8-0.3-1.6-0.6-2.4-0.9c-0.2-0.1-0.4-0.1-0.5-0.2c-0.8-0.2-1.6-0.4-2.3-0.6c-0.1,0-0.1,0-0.2,0c-0.7-0.1-1.4-0.3-2.1-0.3
						c-0.1,0-0.3,0-0.4-0.1c-0.7-0.1-1.4-0.1-2.1-0.1c-0.1,0-0.1,0-0.2,0c-0.1,0-0.2,0-0.2,0c-0.7,0-1.5,0-2.2,0.1c0,0-0.1,0-0.1,0
						c-0.7,0.1-1.4,0.2-2.1,0.4c-0.1,0-0.3,0.1-0.4,0.1c-0.7,0.2-1.3,0.4-1.9,0.6c-0.1,0-0.2,0.1-0.3,0.1c-0.6,0.3-1.3,0.6-1.9,0.9
						l-41.2,24c0.6-0.3,1.2-0.6,1.9-0.9c0.1,0,0.2-0.1,0.3-0.1c0.6-0.2,1.3-0.5,1.9-0.6c0.1,0,0.3-0.1,0.4-0.1
						c0.7-0.2,1.4-0.3,2.1-0.4c0,0,0.1,0,0.1,0c0.7-0.1,1.4-0.1,2.2-0.1c0.1,0,0.3,0,0.4,0c0.7,0,1.4,0,2.1,0.1c0.1,0,0.3,0,0.4,0.1
						c0.7,0.1,1.4,0.2,2.1,0.3c0.1,0,0.1,0,0.2,0c0.8,0.2,1.6,0.4,2.3,0.6c0.2,0.1,0.3,0.1,0.5,0.2c0.8,0.3,1.6,0.5,2.4,0.9
						c0.1,0,0.2,0.1,0.3,0.1c0.6,0.3,1.3,0.6,1.9,0.9c0.2,0.1,0.4,0.2,0.6,0.3c0.8,0.4,1.5,0.8,2.3,1.2l254.6,147
						c1.1,0.6,2.1,1.3,3.2,2c0.2,0.2,0.5,0.3,0.7,0.5c1,0.7,2,1.5,3,2.3c0.1,0.1,0.2,0.1,0.2,0.2c0.9,0.8,1.9,1.6,2.8,2.4
						c0.2,0.2,0.4,0.4,0.6,0.6c0.9,0.9,1.9,1.8,2.8,2.8c0.1,0.2,0.3,0.3,0.4,0.5c0.8,0.9,1.6,1.8,2.4,2.7c0.2,0.2,0.3,0.4,0.5,0.6
						c0.8,1,1.7,2.1,2.5,3.2c0.2,0.2,0.3,0.5,0.5,0.7c0.7,1,1.4,2,2.1,3c0.1,0.2,0.2,0.3,0.3,0.5c0.7,1.1,1.4,2.2,2,3.3
						c0.5,0.8,0.9,1.6,1.4,2.4c0.3,0.6,0.7,1.2,1,1.8c0.4,0.9,0.8,1.7,1.3,2.6c0.3,0.6,0.6,1.2,0.8,1.8c0.4,1,0.8,1.9,1.2,2.9
						c0.2,0.5,0.4,1,0.6,1.5c0.5,1.3,0.9,2.6,1.3,3.9c0.1,0.2,0.1,0.4,0.2,0.5c0,0.1,0,0.1,0,0.2c0.4,1.3,0.7,2.5,1,3.8
						c0.1,0.4,0.2,0.8,0.3,1.2c0.2,0.9,0.4,1.8,0.5,2.7c0.1,0.5,0.2,0.9,0.2,1.4c0.1,0.9,0.2,1.8,0.3,2.7c0,0.4,0.1,0.8,0.1,1.2
						c0.1,1.3,0.2,2.6,0.2,3.8l-0.5,178.8c0,10.9-3.9,18.6-10.1,22.2l41.2-24c6.2-3.6,10.1-11.3,10.1-22.2l0.5-178.8
						C1906.9,1103.5,1906.9,1102.3,1906.8,1101.2z"/>
				</g>
			</g>
			<g>
				<path fill="#0C3461" d="M288.3,380L288,486.8c0,14.3-10.2,20-22.6,12.9l-93.6-54l0.5-158.6l93.6,54
					C278.3,348.3,288.3,365.7,288.3,380z"/>
				<path fill="#0C3461" d="M1781.9,1958.8l-285.3-164.7c-16-9.3-29.1-1.8-29.1,16.6l-0.4,137.9c-0.1,18.4,12.9,40.9,28.9,50.1
					l285.3,164.7c16,9.3,29.1,1.8,29.1-16.6l0.4-137.9C1810.8,1990.5,1797.9,1968.1,1781.9,1958.8z"/>
				<path fill="#0C3461" d="M336.3,1250.8l-0.3,101.3c0,13.5-9.6,19-21.4,12.2l-145.2-83.9l0.4-150.3l145.2,83.9
					C326.9,1220.8,336.4,1237.2,336.3,1250.8z"/>
				<path fill="#0C3461" d="M1155.5,567.2l-0.1,40.5c0,20.3-14.4,28.5-32.1,18.3l-146.5-84.6c-17.7-10.2-31.9-34.9-31.9-55.2
					l0.1-40.5L1155.5,567.2z"/>
			</g>
			<g>
				<g>
					<path fill="#AEC7E6" d="M245.1,393.1l-211-121.8c-12.4-7.2-22.5-1.4-22.6,12.9l-0.3,106.9c0,14.3,10,31.7,22.4,38.8l211,121.8
						c12.4,7.2,22.5,1.4,22.6-12.9l0.3-106.9C267.6,417.6,257.5,400.2,245.1,393.1z"/>
					<path fill="#E9F0F7" d="M91.2,345c5.6,3.2,10.8,7.6,15.6,13.2c1.9,2.3,2.9,4.7,2.9,7.2c0,1.5-0.5,2.7-1.4,3.6
						c-1,0.9-2.3,0.9-3.9,0c-1.1-0.6-2.1-1.6-3.2-2.8c-3.1-3.4-6.4-6.2-10-8.3c-4.4-2.5-8.3-3.7-11.5-3.5c-3.3,0.2-5.8,1.8-7.6,4.6
						c-1.8,2.9-2.7,6.8-2.7,11.8c0,8.5,2,16.2,6,22.9c4,6.7,9.2,12,15.7,15.7c3.8,2.2,7.2,3.3,10,3.3c1.1,0.1,2.1,0.4,3,0.9
						c1.6,0.9,3,2.5,4.2,4.8c0.9,1.9,1.4,3.7,1.4,5.3c0,1.2-0.3,2.1-0.8,2.7c-0.5,0.7-1.2,1-2.2,0.9c-4.9,0-10.2-1.6-15.7-4.8
						c-6.2-3.6-11.8-8.3-17-14.3c-5.2-6-9.3-12.8-12.3-20.5c-3.1-7.6-4.6-15.6-4.6-24c0-7.4,1.5-13.2,4.5-17.3
						c2.9-4.2,7-6.4,12.2-6.7C78.9,339.5,84.7,341.3,91.2,345z"/>
					<path fill="#E9F0F7" d="M141.1,373.3c4,2.3,7.7,5.1,11.2,8.5c3.5,3.4,6.4,6.9,8.7,10.5c1.8,2.7,2.7,5.2,2.7,7.3
						c0,1.7-0.5,2.8-1.6,3.5c-1.1,0.6-2.3,0.6-3.8-0.3c-0.9-0.5-1.8-1.4-2.5-2.5c-1.6-2.5-3.9-5.2-6.8-8.1c-2.9-3-5.6-5.1-7.9-6.5
						c-4-2.3-7-3.2-9.2-2.8c-2.2,0.5-3.3,2.1-3.3,4.8c0,3.1,1.1,6.1,3.3,9c2.2,2.9,5.7,6.2,10.5,10c5.4,4.2,9.7,8.1,13,11.7
						c3.2,3.6,5.7,7.3,7.3,11.2c1.6,3.9,2.4,8.2,2.4,13.1c0,4.6-1.1,7.9-3.4,10.1c-2.2,2.1-5.2,3.1-9,2.8c-3.7-0.3-7.7-1.7-12-4.2
						c-4.5-2.6-8.6-5.6-12.1-8.9c-3.5-3.3-6.8-7.5-9.9-12.4c-1.7-2.7-2.5-5.1-2.5-7.2c0-1.7,0.5-2.8,1.6-3.5
						c1.1-0.6,2.4-0.5,3.9,0.3c1.2,0.7,2.3,1.7,3.2,3.2c2.5,3.8,5,7,7.4,9.5c2.4,2.5,5.2,4.6,8.5,6.5c3.5,2,6.6,2.9,9.1,2.5
						c2.6-0.3,3.8-1.8,3.8-4.5c0-3.3-1.2-6.5-3.8-9.8c-2.5-3.3-6.5-7-12-11.1c-13.8-10.3-20.7-21.7-20.6-34.1
						c0-4.6,1.1-7.9,3.1-10.1c2.1-2.2,4.9-3.1,8.5-2.8C132.7,369.3,136.7,370.7,141.1,373.3z"/>
					<path fill="#E9F0F7" d="M197.6,405.8c4,2.3,7.7,5.1,11.2,8.5c3.5,3.4,6.4,6.9,8.7,10.5c1.8,2.7,2.7,5.2,2.7,7.3
						c0,1.7-0.5,2.8-1.6,3.5c-1.1,0.6-2.3,0.6-3.8-0.3c-1-0.5-1.8-1.4-2.6-2.5c-1.6-2.5-3.9-5.2-6.8-8.1c-2.9-3-5.6-5.1-7.9-6.5
						c-4-2.3-7-3.2-9.2-2.8c-2.2,0.4-3.3,2.1-3.3,4.8c0,3.1,1.1,6.1,3.3,9c2.2,2.9,5.7,6.2,10.5,10c5.4,4.2,9.7,8.1,13,11.7
						c3.2,3.6,5.7,7.3,7.3,11.2c1.6,3.9,2.4,8.2,2.4,13.1c0,4.6-1.1,7.9-3.4,10.1c-2.2,2.1-5.2,3.1-9,2.8c-3.7-0.3-7.7-1.7-12-4.2
						c-4.5-2.6-8.6-5.6-12.1-8.9c-3.5-3.3-6.8-7.5-9.9-12.4c-1.7-2.7-2.5-5.1-2.5-7.2c0-1.7,0.5-2.8,1.6-3.5
						c1.1-0.6,2.4-0.5,3.9,0.3c1.2,0.7,2.3,1.7,3.2,3.2c2.5,3.8,5,7,7.4,9.5c2.4,2.5,5.2,4.6,8.5,6.5c3.5,2,6.6,2.9,9.1,2.5
						c2.6-0.3,3.8-1.8,3.8-4.5c0-3.3-1.2-6.5-3.8-9.8c-2.5-3.3-6.5-7-12-11.1c-13.8-10.3-20.7-21.7-20.6-34.1
						c0-4.6,1.1-7.9,3.1-10.1c2.1-2.2,4.9-3.1,8.5-2.8C189.1,401.9,193.1,403.3,197.6,405.8z"/>
				</g>
				<g>
					<path fill="#AEC7E6" d="M1726.5,1990.7L1441.3,1826c-16-9.3-29.1-1.8-29.1,16.6l-0.4,137.9c-0.1,18.4,12.9,40.9,28.9,50.1
						l285.3,164.7c16,9.3,29.1,1.8,29.1-16.6l0.4-137.9C1755.5,2022.4,1742.6,2000,1726.5,1990.7z"/>
					<path fill="#E9F0F7" d="M1690.7,2039.2c2.3,6.1,3.4,12.1,3.4,17.7c0,5.6-1.2,10.2-3.5,13.7c-2.3,3.6-5.3,5.7-9.1,6.4
						c-3.7,0.7-7.7-0.2-11.8-2.6l-21.2-12.3l-0.1,26.5c0,2.5-0.7,4.2-2,5c-1.3,0.8-3,0.7-5.1-0.6c-2-1.2-3.7-3-5-5.3
						c-1.3-2.4-1.9-4.8-1.9-7.2l0.2-81c0-2.4,0.7-4.1,2.1-4.9c1.4-0.8,3.2-0.6,5.3,0.6l27.8,16.1c4.1,2.4,8.1,6.1,11.8,11.1
						C1685.4,2027.5,1688.4,2033.1,1690.7,2039.2z M1678,2055.2c0.9-1.8,1.4-4.1,1.4-6.7c0-2.6-0.4-5.4-1.4-8.3
						c-0.9-2.9-2.1-5.5-3.6-7.9c-1.5-2.3-3-3.9-4.6-4.8l-21.2-12.3l-0.1,31l21.2,12.3c1.5,0.9,3.1,1,4.6,0.4
						C1675.8,2058.2,1677.1,2057,1678,2055.2L1678,2055.2z"/>
					<g>
						<path fill="#E9F0F7" d="M1608.8,1976.1c2.3,1.3,4.1,3.2,5.5,5.5c1.4,2.4,2.1,4.8,2.1,7.4l-0.2,81c0,2.4-0.7,4-2.2,4.8
							c-1.5,0.8-3.3,0.5-5.6-0.8c-2-1.2-3.8-3-5.2-5.5c-1.5-2.5-2.2-4.9-2.2-7.4l0.1-32.7l-38.9-22.5l-0.1,32.7c0,2.4-0.8,4-2.3,4.8
							c-1.5,0.7-3.3,0.5-5.4-0.6c-2.2-1.3-4-3.1-5.4-5.6c-1.4-2.5-2.1-4.9-2.1-7.3l0.2-81c0-2.4,0.7-4,2.2-4.8
							c1.5-0.8,3.3-0.5,5.6,0.8c2,1.2,3.8,3,5.2,5.5c1.5,2.5,2.2,4.9,2.2,7.4l-0.1,32.2l38.9,22.5l0.1-32.2c0-2.4,0.8-4,2.3-4.8
							C1604.9,1974.7,1606.7,1974.9,1608.8,1976.1z"/>
					</g>
					<path fill="#E9F0F7" d="M1529.4,1946.1c2.3,6.1,3.4,12.1,3.4,17.7c0,5.6-1.2,10.2-3.5,13.7c-2.3,3.6-5.3,5.7-9.1,6.4
						c-3.7,0.7-7.7-0.2-11.8-2.6l-21.2-12.3l-0.1,26.5c0,2.5-0.7,4.2-2,5c-1.3,0.8-3,0.7-5.1-0.6c-2-1.2-3.7-3-5-5.3
						c-1.3-2.4-1.9-4.8-1.9-7.2l0.2-81c0-2.4,0.7-4.1,2.2-4.9c1.4-0.8,3.2-0.6,5.3,0.6l27.8,16.1c4.1,2.4,8.1,6.1,11.8,11.1
						C1524.2,1934.4,1527.2,1940,1529.4,1946.1z M1516.7,1962.1c0.9-1.8,1.4-4.1,1.4-6.7c0-2.6-0.5-5.4-1.4-8.3
						c-0.9-2.9-2.1-5.5-3.6-7.9c-1.5-2.3-3-3.9-4.6-4.8l-21.2-12.3l-0.1,31l21.2,12.3c1.5,0.9,3.1,1,4.6,0.4
						C1514.6,1965.1,1515.8,1963.9,1516.7,1962.1L1516.7,1962.1z"/>
				</g>
				<g>
					<path fill="#AEC7E6" d="M259.8,1245.9L21.7,1108.4c-11.8-6.8-21.4-1.3-21.4,12.2L0,1221.9c0,13.5,9.5,30,21.3,36.8l238.1,137.5
						c11.8,6.8,21.4,1.3,21.4-12.2l0.3-101.3C281.1,1269.2,271.6,1252.7,259.8,1245.9z"/>
					<g>
						<path fill="#E9F0F7" d="M223.3,1264c1.5,0.9,2.8,2.2,3.9,4c1.1,1.8,1.6,3.6,1.6,5.4l-0.2,53.7l23.4,13.5
							c1.5,0.9,2.8,2.2,3.9,3.9c1,1.7,1.6,3.5,1.5,5.3c0,1.7-0.5,2.8-1.6,3.4c-1.1,0.5-2.4,0.3-3.9-0.6l-29.1-16.8
							c-1.6-0.9-2.9-2.2-3.9-4.1c-1-1.8-1.6-3.6-1.6-5.4l0.2-59.5c0-1.8,0.5-3,1.6-3.5S221.6,1263.1,223.3,1264z"/>
					</g>
					<path fill="#E9F0F7" d="M69.1,1175c1.7,1,3,2.3,4,4.1c1,1.8,1.5,3.6,1.5,5.4l-0.2,59.5c0,1.8-0.5,3-1.6,3.5
						c-1.1,0.6-2.5,0.4-4.1-0.6c-1.5-0.9-2.8-2.2-3.9-4c-1.1-1.8-1.6-3.6-1.6-5.4l0.1-24l-28.6-16.5l-0.1,24c0,1.8-0.6,3-1.7,3.5
						c-1.1,0.6-2.5,0.4-3.9-0.5c-1.6-0.9-2.9-2.3-4-4.1c-1-1.8-1.6-3.6-1.6-5.4l0.2-59.5c0-1.8,0.5-3,1.6-3.5
						c1.1-0.6,2.4-0.4,4.1,0.6c1.5,0.9,2.8,2.2,3.9,4c1.1,1.8,1.6,3.6,1.6,5.4l-0.1,23.7l28.6,16.5l0.1-23.7c0-1.8,0.6-3,1.7-3.5
						C66.3,1174,67.6,1174.2,69.1,1175z"/>
					<path fill="#E9F0F7" d="M129.3,1209.8c1.6,0.9,2.9,2.2,3.9,3.9c1,1.7,1.5,3.4,1.5,5.2s-0.5,2.9-1.5,3.4c-1,0.5-2.3,0.2-3.9-0.7
						l-14.1-8.1l-0.2,53.9c0,1.8-0.6,3-1.7,3.5c-1.1,0.6-2.5,0.3-4.2-0.6c-1.7-1-3-2.4-4.1-4.2c-1.1-1.8-1.6-3.6-1.6-5.4l0.2-53.9
						l-14.1-8.1c-1.6-0.9-2.9-2.2-3.9-3.9c-1-1.7-1.5-3.4-1.5-5.2c0-1.7,0.5-2.8,1.6-3.3c1-0.5,2.3-0.3,3.9,0.6L129.3,1209.8z"/>
					<path fill="#E9F0F7" d="M198.6,1249.7c1.5,0.9,2.8,2.2,3.9,4.1c1.1,1.8,1.6,3.7,1.6,5.4l-0.2,59.6c0,1.8-0.5,3-1.5,3.6
						c-1,0.6-2.4,0.4-4-0.5c-1.7-1-3-2.3-4.1-4.1c-1-1.8-1.6-3.6-1.6-5.4l0.1-41.5l-14.9,17.4c-0.6,0.5-1.3,0.8-2.1,0.8
						c-0.7,0.1-1.4-0.1-2.1-0.5c-0.1-0.1-0.2-0.1-0.3-0.2c-0.1,0-0.2-0.1-0.3-0.2c-0.7-0.4-1.4-1-2-1.9c-0.8-1-1.5-2-2.1-3.2
						l-14.7-35.4l-0.1,42.4c0,1.9-0.5,3.1-1.4,3.7c-1,0.6-2.2,0.5-3.8-0.4c-1.5-0.9-2.7-2.2-3.7-3.9c-0.9-1.7-1.4-3.5-1.4-5.3
						l0.2-59.6c0-1.7,0.6-2.9,1.7-3.5c1.1-0.6,2.4-0.5,4,0.4c0.9,0.5,1.8,1.3,2.7,2.3c0.9,1,1.6,2.1,2.1,3.2l19.4,45.8l20.2-22.9
						c0.5-0.5,1.1-0.8,1.9-0.9C196.9,1249,197.7,1249.2,198.6,1249.7z"/>
				</g>
				<g>
					<path fill="#AEC7E6" d="M1068.6,432.5l-146.5-84.6c-17.7-10.2-32-2-32.1,18.3l-0.4,152c-0.1,20.3,14.2,45,31.9,55.2l146.5,84.6
						c17.7,10.2,32,2,32.1-18.3l0.4-152C1100.5,467.4,1086.3,442.7,1068.6,432.5z"/>
					<path fill="#E9F0F7" d="M973.8,436.5c2.5,1.5,4.5,3.5,6,6.1c1.5,2.6,2.3,5.3,2.3,8.1l-0.2,64.9c0,6.2-1.5,11.2-4.4,15
						c-2.9,3.8-6.8,5.9-11.7,6.3c-4.9,0.4-10.3-1.1-16.1-4.4c-5.1-3-9.9-6.9-14.2-11.9c-4.4-4.9-8-10.4-10.7-16.3
						c-1.1-2.5-1.6-4.6-1.6-6.3c0-2.5,0.9-4.1,2.6-4.9c1.7-0.8,3.5-0.7,5.2,0.3c2.3,1.3,4.8,4.3,7.5,9c1.7,2.8,3.4,5.2,5.2,7
						c1.8,1.8,3.8,3.4,6,4.7c2.6,1.5,5.1,2.2,7.5,2c2.4-0.2,4.3-1.2,5.7-3c1.4-1.8,2.2-4.1,2.2-7l0.2-64.9c0-2.7,0.9-4.4,2.6-5.2
						C969.6,435,971.5,435.2,973.8,436.5z"/>
					<path fill="#E9F0F7" d="M1032.6,468.9c5.6,3.3,10.9,7.3,15.9,12.1c5,4.8,9.1,9.8,12.4,14.9c2.6,3.9,3.9,7.3,3.9,10.4
						c0,2.4-0.8,4-2.3,4.9c-1.5,0.9-3.3,0.8-5.4-0.4c-1.3-0.8-2.5-1.9-3.6-3.5c-2.3-3.5-5.6-7.4-9.7-11.6c-4.2-4.2-7.9-7.3-11.2-9.2
						c-5.6-3.3-10-4.6-13.1-3.9c-3.1,0.6-4.7,2.9-4.7,6.8c0,4.4,1.6,8.7,4.7,12.8c3.2,4.1,8.2,8.8,15,14.2
						c7.7,6,13.9,11.5,18.5,16.6c4.6,5.1,8.1,10.4,10.4,15.9c2.3,5.5,3.5,11.7,3.4,18.6c0,6.5-1.6,11.3-4.8,14.3
						c-3.2,3.1-7.4,4.4-12.7,3.9c-5.3-0.4-11-2.4-17.1-5.9c-6.4-3.7-12.2-8-17.2-12.7c-5-4.8-9.7-10.6-14.1-17.6
						c-2.4-3.9-3.6-7.3-3.6-10.3c0-2.4,0.8-4,2.3-4.9c1.5-0.9,3.4-0.8,5.5,0.5c1.7,1,3.2,2.5,4.6,4.5c3.6,5.5,7.1,10,10.5,13.5
						c3.4,3.5,7.4,6.6,12.1,9.3c5,2.9,9.3,4.1,13,3.6c3.6-0.5,5.5-2.6,5.5-6.4c0-4.6-1.8-9.3-5.3-14c-3.6-4.7-9.3-10-17-15.8
						c-19.6-14.6-29.4-30.8-29.4-48.5c0-6.5,1.5-11.3,4.5-14.3c3-3.1,7-4.4,12.1-4C1020.7,463.3,1026.4,465.3,1032.6,468.9z"/>
				</g>
			</g>
		</g>
		<g>
			<g>
				<g>
					<path fill="#114077" d="M760.2,1929.6c14.7,72.9-8.8,136.2-34.9,151.3c-18.8,10.9-131.7,74.5-192.9,111.4
						c-71.1,42.8-170.9-177.2-113.2-209.3c51.2-28.5,202.4-116.8,218.4-126.1C712.3,1813.8,745.5,1856.7,760.2,1929.6z"/>
					<path fill="#114077" d="M725.2,2081c-18.8,10.9-131.7,74.5-192.9,111.4c-66.4,40-158-149.6-122.5-200.7
						c2.5-3.6,5.6-6.5,9.3-8.6c15.4-8.6,39.8-22.6,66.9-38.2c63-36.3,140.3-81.5,151.6-87.9c74.8-43.2,108-0.3,122.6,72.7
						C774.9,2002.5,751.4,2065.8,725.2,2081z"/>
					<path fill="#0C3461" d="M725.2,2081c-18.8,10.9-131.7,74.5-192.9,111.4c-66.4,40-158-149.6-122.5-200.7
						c18.7-8.6,67.1-25.6,106.3,7.7c30.2,25.6,44.1,56.1,50.6,80.1c5.3,19.7,27.3,8.9,45.4-0.5l58.4-30.2c13.7-7.1,21.2-2.1,17.1-17
						c-2.6-9.6-10.1-18.7-27.5-22.2c-43.6-8.6-49.3,34.6-69.1-14.8c-7.1-17.8-52.7-57.1-105-49.9c63-36.3,140.3-81.5,151.6-87.9
						c74.8-43.2,108-0.3,122.6,72.7C774.9,2002.5,751.4,2065.8,725.2,2081z"/>
					<g>
						<path fill="#FFC5B3" d="M528.1,2069.5c-35.3-74.5-100.9-63.5-119.8-50.7c-12.6,8.5-197.6,131.7-233.1,151.9
							c-47.7,27.2,18.9,177.7,79.8,148.9c26.7-12.6,246.4-127.7,257.2-133.3C530.3,2177,559,2134.7,528.1,2069.5z"/>
						<path fill="#F2A29B" d="M512.2,2186.3c-10.8,5.6-230.5,120.7-257.2,133.3c-17.8,8.4-36.2,1.5-52-13.3l246.7-127.7
							c44.2-22.9,64.9-75.5,46.4-121.7c-9.9-24.7-30.3-44.6-70.1-45.3c27.8-6.5,74.3-0.7,102.1,57.8
							C559,2134.7,530.3,2177,512.2,2186.3z"/>
					</g>
					<g>
						<path fill="#E9F0F7" d="M359.2,2266.1c-48.8,25.4-93.1,48.2-104.1,53.5c-60.9,28.8-127.5-121.7-79.8-148.9
							c15.4-8.8,58.9-36.9,104.3-66.7c24.2-1.9,65.7,25.6,82.9,66.8C383.4,2221,373.8,2251.6,359.2,2266.1z"/>
						<path fill="#AEC7E6" d="M359.2,2266.1c-48.8,25.4-93.1,48.2-104.1,53.5c-60.9,28.8-127.5-121.7-79.8-148.9
							c9.3-5.3,29-17.8,53.2-33.4c74.4,16.3,61.8,123.1,73.4,117.8c13.1-6,72.6-37.6,72.6-37.6h0
							C375.8,2241,368.5,2256.8,359.2,2266.1z"/>
					</g>
					<path fill="#114077" d="M290.6,2289.7c0,20.4-3,45.4-30.8,59.9c-16.3,8.5-26.2,15.6-48.7,28.1c-5.7,3.2-14.2,8.3-16.8,9.8
						c-0.2,0.2-0.5,0.3-0.8,0.5c-0.3,0.2-0.6,0.4-1,0.6c-0.4,0.2-0.7,0.4-1.1,0.5c-3.3,1.5-7,2-10.9,1.7c-0.5,0-1-0.1-1.5-0.1
						c-0.5-0.1-1.1-0.1-1.6-0.2c-1.5-0.2-2.9-0.6-4.4-1c-0.4-0.1-0.9-0.3-1.4-0.4c-1.3-0.4-2.7-0.9-4-1.5c-0.9-0.4-1.7-0.7-2.6-1.1
						c-1.7-0.8-3.4-1.6-5.1-2.6c-0.6-0.3-1.1-0.6-1.7-0.9c-35.5-20.5-57.4-77.4-68.9-123.5c-0.3-1-0.5-2.1-0.8-3.2
						c-0.2-0.8-0.4-1.6-0.6-2.5c-0.2-0.9-0.5-1.9-0.7-2.8c-0.9-3.9-2-8.1-3.1-12.7c-0.2-0.6-0.3-1.3-0.5-2c-0.5-2.3-1.1-4.6-1.6-6.9
						c-0.5-2.1-1-4.3-1.5-6.5c-0.5-2-1-4.1-1.4-6.1c-0.5-2.2-1-4.4-1.6-6.7c-0.7-2.9-1.4-5.8-2.1-8.8c-0.3-1.2-0.5-2.4-0.8-3.6
						c-0.1-0.6-0.3-1.2-0.4-1.9c-1.5-6.4-3-12.9-4.5-19.3c-0.3-1.4-0.6-2.7-0.9-4.1c-0.8-3.3-1.5-6.5-2.2-9.7
						c-0.9-3.7-1.7-7.3-2.5-10.9c-0.4-1.8-0.8-3.6-1.2-5.4c-0.2-0.9-0.4-1.8-0.6-2.7c-0.7-2.9-1.3-5.7-1.9-8.4
						c-0.4-2-0.9-3.9-1.3-5.8c-0.5-2.1-0.9-4.1-1.4-6c-0.4-1.6-0.7-3.2-1.1-4.7c0-0.1,0-0.2-0.1-0.3c-0.2-0.9-0.4-1.7-0.6-2.6
						c-0.4-1.7-0.8-3.4-1.1-5.1c-0.6-2.5-1.1-4.8-1.6-7.1c-0.1-0.6-0.3-1.2-0.4-1.8c-0.1-0.6-0.2-1.2-0.3-1.8c0,0,0-0.1,0-0.1
						c-0.1-0.6-0.2-1.2-0.3-1.8c-0.1-1.1-0.2-2.2-0.3-3.3c0-0.2,0-0.3,0-0.5c0-0.5-0.1-1.1-0.1-1.6c0,0,0,0,0-0.1
						c0-1.2,0-2.4,0.1-3.7c0,0,0,0,0,0c0.1-1.7,0.3-3.4,0.5-5.1c0.1-0.8,0.2-1.6,0.4-2.3c0.1-0.6,0.2-1.1,0.4-1.6
						c0.1-0.4,0.2-0.7,0.2-1.1c0.1-0.4,0.2-0.8,0.3-1.2c0.6-2.4,1.5-4.7,2.4-6.9c0.3-0.7,0.6-1.4,0.9-2.1l0.7-1.4
						c0.3-0.6,0.6-1.1,1-1.7c3.1-5.6,7.2-10.7,12.3-14.9c18.2-15.3,46.3-29,83.6-20.9c39.9,8.6,70,38.3,92.1,87.6
						C268.4,2164.8,290.5,2224.7,290.6,2289.7z"/>
					<path fill="#0C3461" d="M290.6,2289.7c0,20.4-3,45.4-30.8,59.9c-16.3,8.5-26.2,15.6-48.7,28.1c-5.7,3.2-14.2,8.3-16.8,9.8
						c-0.2,0.2-0.5,0.3-0.8,0.5c-0.3,0.2-0.6,0.4-1,0.6c-0.4,0.2-0.7,0.4-1.1,0.5c-3.3,1.5-7,2-10.9,1.7c-0.5,0-1-0.1-1.5-0.1
						c-0.5-0.1-1.1-0.1-1.6-0.2c-1.5-0.2-2.9-0.6-4.4-1c-0.4-0.1-0.9-0.3-1.4-0.4c-1.3-0.4-2.7-0.9-4-1.5c-0.9-0.4-1.7-0.7-2.6-1.1
						c-1.7-0.8-3.4-1.6-5.1-2.6c-0.6-0.3-1.1-0.6-1.7-0.9c-35.5-20.5-57.4-77.4-68.9-123.5c-0.3-1-0.5-2.1-0.8-3.2
						c-0.2-0.8-0.4-1.6-0.6-2.5c-0.2-0.9-0.5-1.9-0.7-2.8c-0.9-3.9-2-8.1-3.1-12.7c-0.2-0.6-0.3-1.3-0.5-2c-0.5-2.3-1.1-4.6-1.6-6.9
						c-0.5-2.1-1-4.3-1.5-6.5c-0.5-2-1-4.1-1.4-6.1c-0.5-2.2-1-4.4-1.6-6.7c-0.7-2.9-1.4-5.8-2.1-8.8c-0.3-1.2-0.5-2.4-0.8-3.6
						c-0.1-0.6-0.3-1.2-0.4-1.9c-1.5-6.4-3-12.9-4.5-19.3c-0.3-1.4-0.6-2.7-0.9-4.1c-0.8-3.3-1.5-6.5-2.2-9.7
						c-0.9-3.7-1.7-7.3-2.5-10.9c-0.4-1.8-0.8-3.6-1.2-5.4c-0.2-0.9-0.4-1.8-0.6-2.7c-0.7-2.9-1.3-5.7-1.9-8.4
						c-0.4-2-0.9-3.9-1.3-5.8c-0.5-2.1-0.9-4.1-1.4-6c-0.4-1.6-0.7-3.2-1.1-4.7c0-0.1,0-0.2-0.1-0.3c-0.2-0.9-0.4-1.7-0.6-2.6
						c-0.4-1.7-0.8-3.4-1.1-5.1c-0.6-2.5-1.1-4.8-1.6-7.1c-0.1-0.6-0.3-1.2-0.4-1.8c-0.1-0.6-0.2-1.2-0.3-1.8c0,0,0-0.1,0-0.1
						c-0.1-0.6-0.2-1.2-0.3-1.8c-0.1-1.1-0.2-2.2-0.3-3.4c0-0.2,0-0.3,0-0.5c0-0.5-0.1-1.1-0.1-1.6c0,0,0,0,0-0.1
						c0-1.2,0-2.4,0.1-3.7c0,0,0,0,0,0c0.1-1.7,0.3-3.4,0.5-5.1c0.1-0.8,0.2-1.6,0.4-2.3c0.1-0.6,0.2-1.1,0.4-1.6
						c0.1-0.4,0.2-0.7,0.2-1.1c0.1-0.4,0.2-0.8,0.3-1.2c0.6-2.4,1.5-4.7,2.4-6.9c0.3-0.7,0.6-1.4,0.9-2.1l0.7-1.4
						c0.3-0.6,0.6-1.1,1-1.7c2.7-4.9,6.1-9.3,10.3-13.2c6.2-1.6,12.5-2.9,19.5-2.6c18.3,0.8,36.4,7.3,51.3,17.9
						c27.3,19.4,44.5,50,56,81.5c11.5,31.4,18,64.5,29,96.1c3.8,11.1,8.5,22.5,16.9,30.7c8.4,8.3,21.6,12.7,32.3,7.9
						c6.3-2.8,10.9-8.2,15.8-13.3C290.4,2276.6,290.6,2283.1,290.6,2289.7z"/>
					<g>
						<path fill="#5386B4" d="M194.4,2387.5c-0.2,0.2-0.5,0.3-0.8,0.5c-0.3,0.2-0.6,0.4-1,0.6c-0.4,0.2-0.7,0.4-1.1,0.5
							c-3.3,1.5-7,2-10.9,1.7c-0.5,0-1-0.1-1.5-0.1c-0.5-0.1-1.1-0.1-1.6-0.2c-1.5-0.2-2.9-0.6-4.4-1c-0.4-0.1-0.9-0.3-1.4-0.4
							c-1.3-0.4-2.7-0.9-4-1.5c-0.9-0.4-1.7-0.7-2.6-1.1c-1.7-0.8-3.4-1.6-5.1-2.6c-0.6-0.3-1.1-0.6-1.7-0.9
							c-35.5-20.5-57.4-77.4-68.9-123.5c-0.3-1-0.5-2.1-0.8-3.2c-0.2-0.8-0.4-1.6-0.6-2.5c-0.2-0.9-0.5-1.9-0.7-2.8
							c-0.9-3.9-2-8.1-3.1-12.7c-0.2-0.6-0.3-1.3-0.5-2c-0.5-2.3-1.1-4.6-1.6-6.9c-0.5-2.1-1-4.3-1.5-6.5c-0.5-2-1-4.1-1.4-6.1
							c-0.5-2.2-1-4.4-1.6-6.7c-0.7-2.9-1.4-5.8-2.1-8.8c-0.4-1.8-0.8-3.6-1.3-5.4c-1.5-6.4-3-12.9-4.5-19.3
							c-0.3-1.4-0.6-2.7-0.9-4.1c-0.8-3.3-1.5-6.5-2.2-9.7c-0.9-3.7-1.7-7.3-2.5-10.9c-0.4-1.8-0.8-3.6-1.2-5.4
							c-0.2-0.9-0.4-1.8-0.6-2.7c-0.7-2.9-1.3-5.7-1.9-8.4c-0.4-2-0.9-3.9-1.3-5.8c-0.5-2.1-0.9-4.1-1.4-6c-0.4-1.6-0.7-3.2-1.1-4.7
							c0-0.1,0-0.2-0.1-0.3c-0.2-0.9-0.4-1.7-0.6-2.6c-0.4-1.7-0.8-3.4-1.1-5.1c-0.6-2.5-1.1-4.8-1.6-7.1c-0.1-0.6-0.3-1.2-0.4-1.8
							c-0.3-1.3-0.4-2.5-0.6-3.8c-0.1-1.1-0.2-2.2-0.3-3.3c0-0.2,0-0.3,0-0.5c0-0.5-0.1-1.1-0.1-1.6c0,0,0,0,0-0.1
							c0-1.2,0-2.4,0.1-3.7c0,0,0,0,0,0c0-0.1,0-0.2,0-0.3c0-0.3,0.1-0.7,0.1-1c0.1-1.3,0.2-2.5,0.4-3.8c0.1-0.8,0.2-1.6,0.4-2.3
							c0.1-0.6,0.2-1.1,0.4-1.6c0.1-0.4,0.2-0.7,0.2-1.1c0.1-0.4,0.2-0.8,0.3-1.2c0.6-2.4,1.5-4.7,2.4-6.9c0.3-0.7,0.6-1.4,0.9-2.1
							l0.7-1.4c0.3-0.6,0.6-1.1,1-1.7c6.5-10.8,17.1-16.3,33.4-12c55.1,14.7,108.4,123.5,118.5,213.3
							C218.6,2337.4,212.3,2376.1,194.4,2387.5z"/>
						<g>
							<path fill="#3D75A9" d="M170.5,2135.9l-114.2-65.9c0.5-1.1,1-2.1,1.5-3.2c0.9-1.7,1.9-3.4,3.1-4.8l101,58.3
								C164.9,2125.3,167.7,2130.5,170.5,2135.9z"/>
							<path fill="#3D75A9" d="M195.7,2197.6l-139.4-80.5c-1-4.4-1.9-8.5-2.8-12.3l137.9,79.6
								C192.8,2188.8,194.3,2193.2,195.7,2197.6z"/>
							<path fill="#3D75A9" d="M208.7,2252.3l-140-80.8c-0.9-4.1-1.9-8.2-2.8-12.3l140.7,81.3
								C207.4,2244.4,208.1,2248.4,208.7,2252.3z"/>
							<path fill="#3D75A9" d="M213.6,2302.3L81.4,2226c-0.9-4-1.9-8.1-2.9-12.4l134.4,77.6C213.2,2295.1,213.4,2298.7,213.6,2302.3
								z"/>
							<path fill="#3D75A9" d="M213.3,2338.7c-0.3,3.6-0.6,6.9-1.1,10.1l-116.7-67.4c-1.3-4.3-2.6-8.6-3.7-12.8L213.3,2338.7z"/>
							<path fill="#3D75A9" d="M202.4,2379.5c-1.9,2.9-4.1,5.2-6.5,7l-73.7-42.6c-3-5-5.8-10.2-8.4-15.5L202.4,2379.5z"/>
						</g>
					</g>
				</g>
				<g>
					<path fill="#114077" d="M948.9,2038.8c14.7,72.9-8.8,136.2-34.9,151.3c-18.8,10.9-131.7,74.5-192.9,111.4
						c-71.1,42.8-170.9-177.2-113.2-209.3c51.2-28.5,202.4-116.8,218.4-126.1C901,1922.9,934.2,1965.8,948.9,2038.8z"/>
					<path fill="#114077" d="M914,2190.1c-18.8,10.9-131.7,74.5-192.9,111.4c-66.4,40-158-149.6-122.5-200.7
						c2.5-3.6,5.6-6.5,9.3-8.6c15.4-8.6,39.8-22.6,66.9-38.2c63-36.3,140.3-81.5,151.6-87.9c74.8-43.2,108-0.3,122.6,72.7
						C963.6,2111.7,940.2,2175,914,2190.1z"/>
					<path fill="#0C3461" d="M914,2190.1c-18.8,10.9-131.7,74.5-192.9,111.4c-66.4,40-158-149.6-122.5-200.7
						c18.7-8.6,67.1-25.6,106.3,7.7c30.2,25.6,44.1,56.1,50.6,80.1c5.3,19.7,27.3,29.5,45.4,20.2l58.4-30.2
						c13.7-7.1,21.2-22.7,17.1-37.6c-2.6-9.6-10.1-18.7-27.5-22.2c-43.6-8.6-49.3,34.6-69.1-14.8c-7.1-17.8-52.7-57.1-105-49.9
						c63-36.3,140.3-81.5,151.6-87.9c74.8-43.2,108-0.3,122.6,72.7C963.6,2111.7,940.2,2175,914,2190.1z"/>
					<g>
						<path fill="#FFC5B3" d="M716.9,2178.6c-35.3-74.5-100.9-63.5-119.8-50.7c-12.6,8.5-197.6,131.7-233.1,151.9
							c-47.7,27.2,18.9,177.7,79.8,148.9c26.7-12.6,246.4-127.7,257.2-133.3C719.1,2286.1,747.8,2243.9,716.9,2178.6z"/>
						<path fill="#F2A29B" d="M701,2295.4c-10.8,5.6-230.5,120.7-257.2,133.3c-17.8,8.4-36.2,1.5-52-13.3l246.7-127.7
							c44.2-22.9,64.9-75.5,46.4-121.7c-9.9-24.7-30.3-44.6-70.1-45.3c27.8-6.5,74.3-0.7,102.1,57.8
							C747.8,2243.9,719.1,2286.1,701,2295.4z"/>
					</g>
					<g>
						<path fill="#E9F0F7" d="M547.9,2375.3c-48.8,25.4-93.1,48.2-104.1,53.5c-60.9,28.8-127.5-121.7-79.8-148.9
							c15.4-8.8,58.9-36.9,104.3-66.7c24.2-1.9,65.7,25.6,82.9,66.8C572.2,2330.2,562.5,2360.8,547.9,2375.3z"/>
						<path fill="#AEC7E6" d="M547.9,2375.3c-48.8,25.4-93.1,48.2-104.1,53.5c-60.9,28.8-127.5-121.7-79.8-148.9
							c9.3-5.3,29-17.8,53.2-33.4c74.4,16.3,61.8,123.1,73.4,117.8c13.1-6,72.6-37.6,72.6-37.6h0
							C564.6,2350.1,557.3,2366,547.9,2375.3z"/>
					</g>
					<path fill="#114077" d="M479.3,2398.9c0,20.4-3,45.4-30.8,59.9c-16.3,8.5-26.2,15.6-48.7,28.1c-5.7,3.2-14.2,8.3-16.8,9.8
						c-0.2,0.2-0.5,0.3-0.8,0.5c-0.3,0.2-0.6,0.4-1,0.6c-0.4,0.2-0.7,0.4-1.1,0.5c-3.3,1.5-7,2-10.9,1.7c-0.5,0-1-0.1-1.5-0.1
						c-0.5-0.1-1.1-0.1-1.6-0.2c-1.5-0.2-2.9-0.6-4.4-1c-0.4-0.1-0.9-0.3-1.4-0.4c-1.3-0.4-2.7-0.9-4-1.5c-0.9-0.4-1.7-0.7-2.6-1.1
						c-1.7-0.8-3.4-1.6-5.1-2.6c-0.6-0.3-1.1-0.6-1.7-0.9c-35.5-20.5-57.4-77.4-68.9-123.5c-0.3-1-0.5-2.1-0.8-3.2
						c-0.2-0.8-0.4-1.6-0.6-2.5c-0.2-0.9-0.5-1.9-0.7-2.8c-0.9-3.9-2-8.1-3.1-12.7c-0.2-0.6-0.3-1.3-0.5-2c-0.5-2.3-1.1-4.6-1.6-6.9
						c-0.5-2.1-1-4.3-1.5-6.5c-0.5-2-1-4.1-1.4-6.1c-0.5-2.2-1-4.4-1.6-6.7c-0.7-2.9-1.4-5.8-2.1-8.8c-0.3-1.2-0.5-2.4-0.8-3.6
						c-0.1-0.6-0.3-1.2-0.4-1.9c-1.5-6.4-3-12.9-4.5-19.3c-0.3-1.4-0.6-2.7-0.9-4.1c-0.8-3.3-1.5-6.5-2.2-9.7
						c-0.9-3.7-1.7-7.3-2.5-10.9c-0.4-1.8-0.8-3.6-1.2-5.4c-0.2-0.9-0.4-1.8-0.6-2.7c-0.7-2.9-1.3-5.7-1.9-8.4
						c-0.4-2-0.9-3.9-1.3-5.8c-0.5-2.1-0.9-4.1-1.4-6c-0.4-1.6-0.7-3.2-1.1-4.7c0-0.1,0-0.2-0.1-0.3c-0.2-0.9-0.4-1.7-0.6-2.6
						c-0.4-1.7-0.8-3.4-1.1-5.1c-0.6-2.5-1.1-4.8-1.6-7.1c-0.1-0.6-0.3-1.2-0.4-1.8s-0.2-1.2-0.3-1.8c0,0,0-0.1,0-0.1
						c-0.1-0.6-0.2-1.2-0.3-1.8c-0.1-1.1-0.2-2.2-0.3-3.3c0-0.2,0-0.3,0-0.5c0-0.5-0.1-1.1-0.1-1.6c0,0,0,0,0-0.1
						c0-1.2,0-2.4,0.1-3.7c0,0,0,0,0,0c0.1-1.7,0.3-3.4,0.5-5.1c0.1-0.8,0.2-1.6,0.4-2.3c0.1-0.6,0.2-1.1,0.4-1.6
						c0.1-0.4,0.2-0.7,0.2-1.1c0.1-0.4,0.2-0.8,0.3-1.2c0.6-2.4,1.5-4.7,2.4-6.9c0.3-0.7,0.6-1.4,0.9-2.1l0.7-1.4
						c0.3-0.6,0.6-1.1,1-1.7c3.1-5.6,7.2-10.7,12.3-14.9c18.2-15.3,46.3-29,83.6-20.9c39.9,8.6,70,38.3,92.1,87.6
						C457.1,2273.9,479.3,2333.9,479.3,2398.9z"/>
					<path fill="#0C3461" d="M479.4,2398.9c0,20.4-3,45.4-30.8,59.9c-16.3,8.5-26.2,15.6-48.7,28.1c-5.7,3.2-14.2,8.3-16.8,9.8
						c-0.2,0.2-0.5,0.3-0.8,0.5c-0.3,0.2-0.6,0.4-1,0.6c-0.4,0.2-0.7,0.4-1.1,0.5c-3.3,1.5-7,2-10.9,1.7c-0.5,0-1-0.1-1.5-0.1
						c-0.5-0.1-1.1-0.1-1.6-0.2c-1.5-0.2-2.9-0.6-4.4-1c-0.4-0.1-0.9-0.3-1.4-0.4c-1.3-0.4-2.7-0.9-4-1.5c-0.9-0.4-1.7-0.7-2.6-1.1
						c-1.7-0.8-3.4-1.6-5.1-2.6c-0.6-0.3-1.1-0.6-1.7-0.9c-35.5-20.5-57.4-77.4-68.9-123.5c-0.3-1-0.5-2.1-0.8-3.2
						c-0.2-0.8-0.4-1.6-0.6-2.5c-0.2-0.9-0.5-1.9-0.7-2.8c-0.9-3.9-2-8.1-3.1-12.7c-0.2-0.6-0.3-1.3-0.5-2c-0.5-2.3-1.1-4.6-1.6-6.9
						c-0.5-2.1-1-4.3-1.5-6.5c-0.5-2-1-4.1-1.4-6.1c-0.5-2.2-1-4.4-1.6-6.7c-0.7-2.9-1.4-5.8-2.1-8.8c-0.3-1.2-0.5-2.4-0.8-3.6
						c-0.1-0.6-0.3-1.2-0.4-1.9c-1.5-6.4-3-12.9-4.5-19.3c-0.3-1.4-0.6-2.7-0.9-4.1c-0.8-3.3-1.5-6.5-2.2-9.7
						c-0.9-3.7-1.7-7.3-2.5-10.9c-0.4-1.8-0.8-3.6-1.2-5.4c-0.2-0.9-0.4-1.8-0.6-2.7c-0.7-2.9-1.3-5.7-1.9-8.4
						c-0.4-2-0.9-3.9-1.3-5.8c-0.5-2.1-0.9-4.1-1.4-6c-0.4-1.6-0.7-3.2-1.1-4.7c0-0.1,0-0.2-0.1-0.3c-0.2-0.9-0.4-1.7-0.6-2.6
						c-0.4-1.7-0.8-3.4-1.1-5.1c-0.6-2.5-1.1-4.8-1.6-7.1c-0.1-0.6-0.3-1.2-0.4-1.8c-0.1-0.6-0.2-1.2-0.3-1.8c0,0,0-0.1,0-0.1
						c-0.1-0.6-0.2-1.2-0.3-1.8c-0.1-1.1-0.2-2.2-0.3-3.3c0-0.2,0-0.3,0-0.5c0-0.5-0.1-1.1-0.1-1.6c0,0,0,0,0-0.1
						c0-1.2,0-2.4,0.1-3.7c0,0,0,0,0,0c0.1-1.7,0.3-3.4,0.5-5.1c0.1-0.8,0.2-1.6,0.4-2.3c0.1-0.6,0.2-1.1,0.4-1.6
						c0.1-0.4,0.2-0.7,0.2-1.1c0.1-0.4,0.2-0.8,0.3-1.2c0.6-2.4,1.5-4.7,2.4-6.9c0.3-0.7,0.6-1.4,0.9-2.1l0.7-1.4
						c0.3-0.6,0.6-1.1,1-1.7c2.7-4.9,6.1-9.3,10.3-13.2c6.2-1.6,12.5-2.9,19.5-2.6c18.3,0.8,36.4,7.3,51.3,17.9
						c27.3,19.4,44.5,50,56,81.5c11.5,31.4,18,64.5,29,96.1c3.8,11.1,8.5,22.5,16.9,30.7c8.4,8.3,21.6,12.7,32.3,7.9
						c6.3-2.8,10.9-8.2,15.8-13.3C479.1,2385.7,479.4,2392.3,479.4,2398.9z"/>
					<g>
						<path fill="#5386B4" d="M383.1,2496.7c-0.2,0.2-0.5,0.3-0.8,0.5c-0.3,0.2-0.6,0.4-1,0.6c-0.4,0.2-0.7,0.4-1.1,0.5
							c-3.3,1.5-7,2-10.9,1.7c-0.5,0-1-0.1-1.5-0.1c-0.5-0.1-1.1-0.1-1.6-0.2c-1.5-0.2-2.9-0.6-4.4-1c-0.4-0.1-0.9-0.3-1.4-0.4
							c-1.3-0.4-2.7-0.9-4-1.5c-0.9-0.4-1.7-0.7-2.6-1.1c-1.7-0.8-3.4-1.6-5.1-2.6c-0.6-0.3-1.1-0.6-1.7-0.9
							c-35.5-20.5-57.4-77.4-68.9-123.5c-0.3-1-0.5-2.1-0.8-3.2c-0.2-0.8-0.4-1.6-0.6-2.5c-0.2-0.9-0.5-1.9-0.7-2.8
							c-0.9-3.9-2-8.1-3.1-12.7c-0.2-0.6-0.3-1.3-0.5-2c-0.5-2.3-1.1-4.6-1.6-6.9c-0.5-2.1-1-4.3-1.5-6.5c-0.5-2-1-4.1-1.4-6.1
							c-0.5-2.2-1-4.4-1.6-6.7c-0.7-2.9-1.4-5.8-2.1-8.8c-0.4-1.8-0.8-3.6-1.3-5.4c-1.5-6.4-3-12.9-4.5-19.3
							c-0.3-1.4-0.6-2.7-0.9-4.1c-0.8-3.3-1.5-6.5-2.2-9.7c-0.9-3.7-1.7-7.3-2.5-10.9c-0.4-1.8-0.8-3.6-1.2-5.4
							c-0.2-0.9-0.4-1.8-0.6-2.7c-0.7-2.9-1.3-5.7-1.9-8.4c-0.4-2-0.9-3.9-1.3-5.8c-0.5-2.1-0.9-4.1-1.4-6c-0.4-1.6-0.7-3.2-1.1-4.7
							c0-0.1,0-0.2-0.1-0.3c-0.2-0.9-0.4-1.7-0.6-2.6c-0.4-1.7-0.8-3.4-1.1-5.1c-0.6-2.5-1.1-4.8-1.6-7.1c-0.1-0.6-0.3-1.2-0.4-1.8
							c-0.3-1.3-0.4-2.5-0.6-3.8c-0.1-1.1-0.2-2.2-0.3-3.3c0-0.2,0-0.3,0-0.5c0-0.5-0.1-1.1-0.1-1.6c0,0,0,0,0-0.1
							c0-1.2,0-2.4,0.1-3.7c0,0,0,0,0,0c0-0.1,0-0.2,0-0.3c0-0.4,0.1-0.7,0.1-1c0.1-1.3,0.2-2.5,0.4-3.8c0.1-0.8,0.2-1.6,0.4-2.3
							c0.1-0.6,0.2-1.1,0.4-1.6c0.1-0.4,0.2-0.7,0.2-1.1c0.1-0.4,0.2-0.8,0.3-1.2c0.6-2.4,1.5-4.7,2.4-6.9c0.3-0.7,0.6-1.4,0.9-2.1
							l0.7-1.4c0.3-0.6,0.6-1.1,1-1.7c6.5-10.8,17.1-16.3,33.4-12c55.1,14.7,108.4,123.5,118.5,213.3
							C407.3,2446.6,401.1,2485.2,383.1,2496.7z"/>
						<g>
							<path fill="#3D75A9" d="M359.3,2245L245,2179.1c0.5-1.1,1-2.1,1.5-3.2c0.9-1.7,1.9-3.4,3.1-4.8l101,58.3
								C353.6,2234.4,356.5,2239.7,359.3,2245z"/>
							<path fill="#3D75A9" d="M384.4,2306.8L245,2226.3c-1-4.4-1.9-8.5-2.8-12.3l137.9,79.6C381.6,2297.9,383,2302.3,384.4,2306.8z
								"/>
							<path fill="#3D75A9" d="M397.4,2361.4l-140-80.8c-0.9-4.1-1.9-8.2-2.8-12.3l140.7,81.3
								C396.1,2353.5,396.8,2357.5,397.4,2361.4z"/>
							<path fill="#3D75A9" d="M402.3,2411.5l-132.2-76.3c-0.9-4-1.9-8.1-2.9-12.4l134.4,77.6
								C401.9,2404.2,402.2,2407.9,402.3,2411.5z"/>
							<path fill="#3D75A9" d="M402.1,2447.8c-0.3,3.6-0.6,6.9-1.1,10.1l-116.7-67.4c-1.3-4.3-2.6-8.6-3.7-12.8L402.1,2447.8z"/>
							<path fill="#3D75A9" d="M391.1,2488.7c-1.9,2.9-4.1,5.2-6.5,7l-73.7-42.6c-3-5-5.8-10.2-8.4-15.5L391.1,2488.7z"/>
						</g>
					</g>
				</g>
				<g>
					<g>
						<path fill="#DB8918" d="M499,1888.3c150.4-83.4,139.8-368.4,139.8-366.1c0-59.7-39.4-106.1-110.7-87.7
							c-61.7,15.9-100.8,79.5-97.5,116.7c26.5,299.3-130.8,245.3-164.3,221.7c-33.5-23.6-103.9,84.4-78.7,104.1
							C290.5,1957.9,417.5,1933.5,499,1888.3z"/>
						<g>
							<g>
								<path fill="#F2A29B" d="M251.6,1776.3c0,0-18.9-41.2-46.1-59.6c-27.2-18.3-48.3-30.6-48.3-30.6s-22.8,37.2-22.2,86.1
									c0.6,48.9,7.8,70,7.8,70s10.6,12.8,37.2,10.6l8.9,4.4C219.6,1877,279.3,1797,251.6,1776.3z"/>
								<path fill="#F2A29B" d="M251.6,1776.3c0,0,3-39.2-6.9-62.8c-16.4-39-31.9-43.2-43.6-53.5c-11.7-10.3-27.8-22.4-34.9-24.9
									c-7.1-2.5-19.2,27-6.5,44.6c12.7,17.5,27.9,39.2,27.9,39.2s-30.4,47.4,16.1,77C250,1825.6,251.3,1782.4,251.6,1776.3z"/>
							</g>
							<path fill="#E9F0F7" d="M117.6,1507.9c-0.6-0.3-1.2-0.5-1.9-0.8c-0.4-0.1-0.8-0.3-1.1-0.5c-0.9-0.3-1.7-0.6-2.5-0.8
								c-0.2,0-0.3-0.1-0.5-0.1c-0.8-0.2-1.5-0.3-2.2-0.4c0,0-0.1,0-0.1,0c-0.8-0.1-1.5-0.1-2.2-0.1c-0.1,0-0.2,0-0.3,0
								c-0.7,0-1.3,0.1-2,0.3c-0.1,0-0.2,0-0.2,0c-0.6,0.2-1.2,0.4-1.7,0.6c-0.1,0-0.1,0.1-0.2,0.1c-0.6,0.3-1.1,0.6-1.6,1l13-10.2
								c0.2-0.1,0.4-0.3,0.5-0.4c0.3-0.2,0.6-0.4,0.9-0.5c0.1,0,0.1-0.1,0.2-0.1c0.1,0,0.1-0.1,0.2-0.1c0.2-0.1,0.4-0.2,0.5-0.2
								c0.3-0.1,0.7-0.2,1-0.3c0.1,0,0.1,0,0.2,0c0.1,0,0.2,0,0.2,0c0.2,0,0.4-0.1,0.6-0.1c0.4-0.1,0.7-0.1,1.1-0.1
								c0.1,0,0.1,0,0.2,0c0.1,0,0.2,0,0.2,0c0.3,0,0.5,0,0.8,0c0.4,0,0.9,0,1.4,0.1c0,0,0,0,0.1,0c0,0,0.1,0,0.1,0
								c0.4,0,0.9,0.1,1.3,0.2c0.3,0.1,0.6,0.1,0.9,0.2c0.2,0,0.3,0.1,0.5,0.1c0.1,0,0.2,0,0.3,0.1c0.7,0.2,1.4,0.4,2.1,0.6
								c0,0,0.1,0,0.1,0.1c0.4,0.1,0.7,0.3,1.1,0.5c0.5,0.2,1,0.4,1.6,0.6c0.1,0,0.2,0.1,0.3,0.1c0.1,0.1,0.3,0.1,0.4,0.2
								c0.9,0.5,1.9,1,2.9,1.5l223.5,129c0.9,0.5,1.8,1.1,2.8,1.7c0.3,0.2,0.6,0.4,0.9,0.6c0.6,0.4,1.2,0.9,1.8,1.3
								c0.3,0.3,0.7,0.5,1,0.8c0.6,0.4,1.1,0.9,1.7,1.3c0.4,0.3,0.7,0.6,1.1,0.9c0.3,0.2,0.5,0.5,0.8,0.7c0.2,0.2,0.5,0.5,0.7,0.7
								c0.4,0.4,0.8,0.7,1.1,1.1c0.2,0.2,0.4,0.4,0.6,0.6c0.4,0.4,0.8,0.8,1.1,1.2c0.2,0.2,0.4,0.4,0.5,0.6c0.1,0.1,0.2,0.2,0.2,0.2
								c0.6,0.6,1.1,1.2,1.7,1.8c0.1,0.1,0.2,0.3,0.4,0.4c0.1,0.2,0.3,0.3,0.4,0.5c0.2,0.3,0.5,0.5,0.7,0.8c0.5,0.6,0.9,1.1,1.4,1.7
								c0,0,0.1,0.1,0.1,0.1c0.1,0.1,0.1,0.1,0.2,0.2c0.4,0.5,0.7,0.9,1.1,1.4c0.3,0.4,0.7,0.9,1,1.3c0.1,0.1,0.1,0.2,0.2,0.2
								c0,0,0.1,0.1,0.1,0.1c0.4,0.6,0.8,1.1,1.2,1.7c0.2,0.3,0.4,0.6,0.6,1c0.1,0.1,0.2,0.3,0.3,0.4c0.1,0.1,0.2,0.2,0.2,0.4
								c0.4,0.6,0.8,1.2,1.1,1.8c0.1,0.2,0.3,0.4,0.4,0.6c0.1,0.2,0.2,0.3,0.3,0.5c0.1,0.2,0.3,0.4,0.4,0.7c0.4,0.6,0.7,1.3,1,1.9
								c0.1,0.1,0.1,0.2,0.1,0.3c0.1,0.2,0.2,0.3,0.2,0.5c0.2,0.4,0.4,0.8,0.6,1.2c0.2,0.5,0.5,0.9,0.7,1.4c0.1,0.1,0.1,0.3,0.2,0.4
								c0,0.1,0.1,0.1,0.1,0.2c0.3,0.7,0.7,1.5,1,2.2c0.1,0.1,0.1,0.3,0.1,0.4c0.1,0.3,0.2,0.6,0.3,0.9c0.2,0.4,0.3,0.8,0.5,1.3
								c0.1,0.2,0.1,0.4,0.2,0.6c0.2,0.5,0.4,1.1,0.5,1.6c0.1,0.3,0.2,0.6,0.3,0.9c0.1,0.3,0.1,0.6,0.2,0.8c0.1,0.3,0.1,0.5,0.2,0.8
								c0.2,0.9,0.4,1.8,0.6,2.7l48.1,293.9c1.2,7.3-0.3,12.4-3.7,15.1l-13,10.2c3.4-2.7,4.9-7.8,3.7-15.1l-48.1-293.9
								c-0.1-0.9-0.3-1.8-0.6-2.7c-0.1-0.3-0.1-0.5-0.2-0.8c-0.2-0.6-0.3-1.2-0.5-1.8c-0.2-0.5-0.3-1.1-0.5-1.6
								c-0.2-0.6-0.4-1.3-0.7-1.9c-0.1-0.3-0.2-0.6-0.3-0.9c-0.4-0.9-0.8-1.9-1.2-2.8c-0.1-0.1-0.1-0.3-0.2-0.4
								c-0.4-0.9-0.8-1.8-1.3-2.6c-0.1-0.2-0.2-0.3-0.2-0.5c-0.5-0.9-1-1.9-1.6-2.8c-0.1-0.2-0.2-0.3-0.3-0.5
								c-0.6-0.9-1.1-1.9-1.7-2.8c-0.1-0.1-0.2-0.3-0.3-0.4c-0.6-0.9-1.3-1.9-1.9-2.8c-0.1-0.1-0.1-0.2-0.2-0.2
								c-0.7-0.9-1.4-1.8-2.1-2.7c-0.1-0.1-0.1-0.1-0.2-0.2c-0.7-0.9-1.4-1.8-2.2-2.6c-0.1-0.2-0.3-0.3-0.4-0.5
								c-0.7-0.8-1.5-1.7-2.2-2.5c-0.2-0.2-0.4-0.4-0.5-0.6c-0.6-0.6-1.2-1.2-1.8-1.8c-0.4-0.4-0.8-0.7-1.1-1.1
								c-0.5-0.5-1-0.9-1.5-1.4c-0.4-0.3-0.7-0.6-1.1-0.9c-0.5-0.5-1.1-0.9-1.6-1.3c-0.3-0.3-0.7-0.6-1-0.8
								c-0.6-0.5-1.2-0.9-1.8-1.3c-0.3-0.2-0.6-0.4-0.9-0.6c-0.9-0.6-1.8-1.2-2.8-1.7l-223.5-129c-1-0.6-2-1.1-2.9-1.5
								C117.8,1508.1,117.7,1508,117.6,1507.9z"/>
							<g>
								<path fill="#AEC7E6" d="M120.9,1509.6c-15.7-9-26.2-3.3-23.6,12.9l48.1,293.9c2.6,16.2,17.5,36.6,33.2,45.7l223.5,129
									c15.7,9,26.2,3.3,23.6-12.9l-48.1-293.9c-2.6-16.2-17.5-36.6-33.1-45.7L120.9,1509.6z"/>
							</g>
							<g>
								<path fill="#FFC5B3" d="M160.2,1809.8c-13-5.5-31.1-10.4-49.8-11.4c-18.7-1-16.1,30.7-0.4,37s35.9,12,47.6,8.6
									C169.3,1840.6,177.2,1817,160.2,1809.8z"/>
								<path fill="#FFC5B3" d="M160.9,1769.1c-13.4-8.8-24.2-13.8-48.4-16.2c-21.7-2.2-20.3,37.6-3.8,45.6c16.5,8,35.9,9.4,50,7.3
									C172.8,1803.7,177.3,1780,160.9,1769.1z"/>
								<path fill="#FFC5B3" d="M164.2,1725.1c-16.2-8.5-26.5-19.7-51.1-22.6c-17.5-2.1-29.4,39.2-8.1,50.4
									c18.5,9.8,34.7,12,51.3,12.8C176.7,1766.6,180.6,1733.7,164.2,1725.1z"/>
								<path fill="#FFC5B3" d="M181.4,1696.4c-12.5-13.4-33.4-31.7-58.1-34.2c-24.7-2.5-34,31.5-17.9,44.8
									c16.1,13.3,43.1,25.5,59.2,26.9C180.6,1735.3,196.7,1712.8,181.4,1696.4z"/>
							</g>
						</g>
					</g>
					<g>
						<g>
							<g>
								<g>
									<path fill="#AEC7E6" d="M537.7,1660.3c0.1,0.2,0.2,0.4,0.3,0.7c-0.1-0.3-0.3-0.6-0.4-0.8
										C537.6,1660.2,537.6,1660.3,537.7,1660.3z"/>
									<g>
										<g>
											<path fill="#FBC977" d="M785.2,2085.3c-62-35.4-243.7-137.4-258.6-150.6c-29.2-25.8,7.5-43.1-20.7-165.2
												c-9.8-42.6-23.5-103.4-41.9-145.9c-62.1-143.6,104.7-201.5,130.2-186.8s137.8,79.6,137.8,79.6s82.7,48.1,121,69.7
												c86.6,49,84.3,374.4,88.3,409.4C948.2,2056.4,836.3,2114.5,785.2,2085.3z"/>
										</g>
									</g>
									<path fill="#DB8918" d="M785.2,2085.3c-62-35.4-243.7-137.4-258.6-150.6c-29.2-25.8,7.5-43.1-20.7-165.2
										c-1.7-7.2-3.4-14.9-5.3-23c0.3-0.1,0.7-0.1,1-0.2c0,0,36.1,46,122.2,79.2c32.4,12.5,74.1,10.8,98.9-13.4
										c30.5-29.9,11.2-100.8,11.2-100.8c3.8-43.2,80.2-64.2,115-64c15.9,0.1,32,0.3,47.9,1.3c42.1,110.8,41.3,319.2,44.4,346.8
										C948.2,2056.4,836.3,2114.5,785.2,2085.3z"/>
								</g>
								<path fill="#F2A29B" d="M711.5,1489.8c0,0,2.9,9.5,8.6,25.9c18,51.7-63.2,106.3-118.5,84.4c-42.5-16.9-23.7-57.9-23.7-93
									C577.9,1463.5,711.5,1457.5,711.5,1489.8z"/>
							</g>
						</g>
					</g>
					<g>
						<g>
							<path fill="#FFC5B3" d="M825.7,1230.7c-5.8,142.9-49.7,199.2-131.7,273.8c-81.9,74.6-211.1,93.5-298.9,38.2
								c-5.7-3.6-11-7.2-15.9-10.8h0c-72.5-53.1-77.1-116.1-80.4-183.9c-2.1-43.1-6.3-49.7-9.3-110.4c-2-41.4-3.6-72.3-3.6-72.3
								c-5.1-102.1,53-200.4,266.2-211.6C765.2,942.5,831.6,1087.7,825.7,1230.7z"/>
							<path fill="#F2A29B" d="M825.7,1230.7c-5.8,142.9-49.7,199.2-131.7,273.8c-81.9,74.6-211.1,93.5-298.9,38.2
								c-5.7-3.6-11-7.2-15.9-10.8c169.3,84.1,307.7-34.8,279.4-126.4c-4-13-61.7,13.5-61.7-17.1v-25.2c0-32.9,0.2-64.1-38.5-64.1
								c-28.1,0-75.3-0.4-133.7-22.2c-111.7-41.7-135.3-60.5-135.3-60.5c-2-41.4-3.6-51-3.6-51c-5.1-102.1,53-200.4,266.2-211.6
								C765.2,942.5,831.6,1087.7,825.7,1230.7z"/>
							<g>
								<path fill="#FF8666" d="M711.5,1489.8c-15.6-20.5-41.4-67.6-83.8-50.4c-8.4,3.4-17.4,1.1-17.4-8.2V1309
									c0-47.8-93.1,0-229.6-56.2c-96.7-39.8-117.3-58.9-128.9-86.3c-9-21.4,3.8-36.5,22.8-47.7c1.9-55.7,54.9-174.4,193.5-200.2
									c136.5-25.4,263.9,0,309.9,107.3c34.1,15,59.8,69.8,66.9,105C885.6,1332.7,755.9,1464.3,711.5,1489.8z"/>
								<path fill="#ED4944" d="M711.5,1489.8c-15.6-20.5-41.3-67.6-83.8-50.4c-8.4,3.4-17.4,1.1-17.4-8.3V1309
									c0-47.8-93.1,0-229.6-56.2c-96.7-39.8-117.3-59-128.9-86.3c-6.5-15.3-1.7-27.4,8.5-37.2c3,9.4,8.1,18.3,14.6,25.8
									c13.4,15.6,31.9,26,50.7,34.4c94.4,42.1,200.8,40.4,304.8,32.8c26.5-1.9,53,3.4,76.5,15.5c29.2,15,49.1,20.5,70.6,14
									c32.5-9.8,47-74.4,71.4-98.1C875.8,1342.6,754.2,1465.3,711.5,1489.8z"/>
								<path fill="#ED4944" d="M418.3,1177.5c-108,0.5-143.7-58.7-143.7-58.7c0.1-4.2,0.6-8.8,1.4-13.7
									C321.7,1163.1,418.3,1177.5,418.3,1177.5z"/>
							</g>
							<path fill="#FFC5B3" d="M649.5,1408v76.1c0,10,9.9,14.8,19.2,11.3c27.1-10.3,43.9-36.6,49.6-64.3c9.7-46.7,1.7-82.8-40.8-62
								C671.5,1372,649.5,1386.1,649.5,1408z"/>
						</g>
						<g>
							<g>
								<path fill="#693A2C" d="M411.2,1441.6c6,3.5,10.9,12,10.9,18.9l0,9c-0.1,28.1-20,39.4-44.4,25.3
									c-24.4-14.1-44.2-48.3-44.1-76.4l0-9c0-6.9,4.9-9.7,11-6.3L411.2,1441.6z"/>
							</g>
						</g>
						<g>
							<g>
								<path fill="#693A2C" d="M315.5,1289.3c7.8,4.5,14,23.2,14,41.9c-0.1,18.6-6.4,30.1-14.2,25.6c-7.8-4.5-14-23.2-14-41.9
									C301.4,1296.3,307.7,1284.8,315.5,1289.3z"/>
							</g>
							<g>
								<path fill="#693A2C" d="M454.2,1369.4c7.8,4.5,14,23.2,14,41.9c-0.1,18.6-6.4,30.1-14.2,25.6c-7.8-4.5-14-23.2-14-41.9
									C440,1376.4,446.4,1364.9,454.2,1369.4z"/>
							</g>
						</g>
					</g>
					<g>
						<path fill="#FBC977" d="M834.5,2035.1c124.5-54.5,124.2-294.3,79.7-377.9c-30-56.4-86.2-94.6-138-64.9
							c-58.6,33.6-53.6,92.1-32.4,153c56.4,161.8-60.9,209.2-95.8,151.4c-9.9-16.4-38.6-20.2-72.6-2.5c-39.4,20.6-45.4,47.1-37,67.4
							C560.4,2015.1,674.7,2105.1,834.5,2035.1z"/>
						<g>
							<path fill="#F2A29B" d="M521.2,1926c6.7,5.7,16.8,11.4,16.8,11.4c6,16.1,49.2,29.7,80,12.4c30.7-17.4,20.6-45.6,20.6-45.6
								s4.5-32.6-2.4-41.9c-8-10.9-19-20.6-31.2-29.1c-38.7-27.1-89.5-42-93-42.2c0,0-1.6,25.8-1.1,64.6c0.1,5.7,0,11.8-0.1,17.8
								C510.4,1895.1,510.6,1917,521.2,1926z"/>
							<path fill="#FFC5B3" d="M617.9,1949.8c30.7-17.4,20.6-45.6,20.6-45.6s4.5-32.6-2.4-41.9c-8-10.9-19-20.6-31.2-29.1
								c0.2,10.1,2.1,19.7,3.3,28.7c0,3.1-1.8,6.2-2.6,9.2c-1.2,4.6-2.3,9.3-3.2,14c-1,4.7-2,9.4-2.9,14c-1.1,5.6-1.4,11.7-4.7,16.7
								c-3,4.6-10.4,16.1-15.7,15.9C570.3,1931,587.2,1967.2,617.9,1949.8z"/>
							<path fill="#F2A29B" d="M537.9,1937.4c0,0-48-24.9-57.8-48.5c-16.3-39.1-11.8-59.3-10.9-74.9c0.9-15.5-4.6-36.3-1.4-43.1
								s34.9,5,38.5,26.3c3.6,21.4,9,40.2,9,40.2s59.9,20.7,42.8,73.1C552.3,1928.2,542.5,1941.5,537.9,1937.4z"/>
							<path fill="#F2A29B" d="M575.4,1815.6c0,0,4.1-49.2-28-85.9c-32.1-36.6-72.1-44.2-83.1-27.6c-11,16.6-0.8,26.4,21.5,44.6
								s26.1,34.7,26.1,44.2C511.9,1829.2,572.1,1853.9,575.4,1815.6z"/>
							<path fill="#FFC5B3" d="M609.7,1820.4c0,0,4.5-41-24.5-53c-29-12-76.2-6.6-77.3,35.4c-1.1,42,27.8,49.7,45.9,43.2
								c15.4-5.5,14.9-24.8,14.9-24.8L609.7,1820.4z"/>
							<path fill="#FFC5B3" d="M623.7,1845.3c0,0,1.8-34.7-22.2-46.8c-24-12-61-9.5-61.9,32.5c-0.9,42,22.9,46.3,37.9,39.9
								c12.7-5.5,12.3-24.8,12.3-24.8L623.7,1845.3z"/>
							<path fill="#FFC5B3" d="M638.8,1869c0,0,1.5-31.2-18.9-42c-20.4-10.8-51.9-8.6-52.6,29.2c-0.8,37.8,19.5,41.7,32.2,35.9
								c10.8-4.9,10.4-22.3,10.4-22.3L638.8,1869z"/>
						</g>
					</g>
				</g>
			</g>
		</g>
	</g>
</g>
</svg>
